<svg width="1092" height="610" viewBox="0 0 1092 610" fill="none" xmlns="http://www.w3.org/2000/svg">
<rect width="1092" height="610" rx="20" fill="black"/>
<path d="M86.8164 93.5625V122H83.2227V93.5625H86.8164ZM83.0078 91.4531L86.7969 85.7109H91.1523L85.918 91.4531H83.0078ZM99.9219 119.441C100.612 119.441 101.237 119.305 101.797 119.031C102.37 118.745 102.839 118.302 103.203 117.703C103.568 117.091 103.776 116.297 103.828 115.32H107.07C107.018 116.727 106.66 117.964 105.996 119.031C105.345 120.086 104.486 120.913 103.418 121.512C102.363 122.098 101.198 122.391 99.9219 122.391C98.5547 122.391 97.3633 122.169 96.3477 121.727C95.3451 121.284 94.5117 120.646 93.8477 119.812C93.1966 118.966 92.7083 117.944 92.3828 116.746C92.0573 115.535 91.8945 114.161 91.8945 112.625V110.242C91.8945 108.706 92.0573 107.339 92.3828 106.141C92.7083 104.93 93.1966 103.908 93.8477 103.074C94.5117 102.228 95.3451 101.583 96.3477 101.141C97.3633 100.698 98.5547 100.477 99.9219 100.477C101.354 100.477 102.591 100.783 103.633 101.395C104.688 101.993 105.508 102.866 106.094 104.012C106.693 105.145 107.018 106.518 107.07 108.133H103.828C103.776 107.091 103.587 106.225 103.262 105.535C102.936 104.832 102.493 104.311 101.934 103.973C101.374 103.621 100.703 103.445 99.9219 103.445C99.0104 103.445 98.2552 103.608 97.6562 103.934C97.0703 104.246 96.6081 104.702 96.2695 105.301C95.931 105.9 95.6901 106.616 95.5469 107.449C95.4167 108.283 95.3516 109.214 95.3516 110.242V112.625C95.3516 113.654 95.4167 114.591 95.5469 115.438C95.6901 116.271 95.9245 116.987 96.25 117.586C96.5885 118.185 97.0573 118.647 97.6562 118.973C98.2552 119.285 99.0104 119.441 99.9219 119.441ZM110.352 112.449V110.438C110.352 108.797 110.56 107.358 110.977 106.121C111.393 104.871 111.973 103.829 112.715 102.996C113.457 102.163 114.323 101.538 115.312 101.121C116.302 100.691 117.363 100.477 118.496 100.477C119.655 100.477 120.729 100.691 121.719 101.121C122.708 101.538 123.574 102.163 124.316 102.996C125.072 103.829 125.658 104.871 126.074 106.121C126.491 107.358 126.699 108.797 126.699 110.438V112.449C126.699 114.09 126.491 115.535 126.074 116.785C125.658 118.022 125.078 119.057 124.336 119.891C123.594 120.724 122.728 121.349 121.738 121.766C120.749 122.182 119.681 122.391 118.535 122.391C117.389 122.391 116.322 122.182 115.332 121.766C114.342 121.349 113.47 120.724 112.715 119.891C111.973 119.057 111.393 118.022 110.977 116.785C110.56 115.535 110.352 114.09 110.352 112.449ZM113.809 110.438V112.449C113.809 113.608 113.926 114.624 114.16 115.496C114.395 116.368 114.727 117.098 115.156 117.684C115.586 118.27 116.087 118.712 116.66 119.012C117.233 119.298 117.858 119.441 118.535 119.441C119.316 119.441 120 119.298 120.586 119.012C121.185 118.712 121.68 118.27 122.07 117.684C122.461 117.098 122.754 116.368 122.949 115.496C123.145 114.624 123.242 113.608 123.242 112.449V110.438C123.242 109.279 123.125 108.27 122.891 107.41C122.656 106.538 122.324 105.809 121.895 105.223C121.465 104.624 120.957 104.181 120.371 103.895C119.798 103.595 119.173 103.445 118.496 103.445C117.832 103.445 117.214 103.595 116.641 103.895C116.068 104.181 115.566 104.624 115.137 105.223C114.72 105.809 114.395 106.538 114.16 107.41C113.926 108.27 113.809 109.279 113.809 110.438ZM134.609 105.379V122H131.152V100.867H134.414L134.609 105.379ZM133.77 110.633L132.363 110.574C132.35 109.129 132.513 107.794 132.852 106.57C133.203 105.333 133.698 104.259 134.336 103.348C134.987 102.436 135.762 101.733 136.66 101.238C137.559 100.73 138.555 100.477 139.648 100.477C140.508 100.477 141.289 100.62 141.992 100.906C142.695 101.18 143.294 101.622 143.789 102.234C144.284 102.846 144.661 103.641 144.922 104.617C145.195 105.581 145.332 106.759 145.332 108.152V122H141.875V108.113C141.875 107.007 141.751 106.121 141.504 105.457C141.27 104.78 140.905 104.292 140.41 103.992C139.928 103.68 139.316 103.523 138.574 103.523C137.897 103.523 137.266 103.712 136.68 104.09C136.094 104.467 135.579 104.988 135.137 105.652C134.707 106.316 134.368 107.078 134.121 107.938C133.887 108.784 133.77 109.682 133.77 110.633ZM158.086 122.391C156.823 122.391 155.684 122.202 154.668 121.824C153.652 121.447 152.786 120.874 152.07 120.105C151.354 119.324 150.807 118.341 150.43 117.156C150.052 115.971 149.863 114.572 149.863 112.957V110.574C149.863 108.712 150.078 107.137 150.508 105.848C150.951 104.559 151.543 103.523 152.285 102.742C153.027 101.948 153.867 101.375 154.805 101.023C155.742 100.659 156.706 100.477 157.695 100.477C159.023 100.477 160.156 100.691 161.094 101.121C162.031 101.551 162.793 102.189 163.379 103.035C163.965 103.882 164.395 104.923 164.668 106.16C164.954 107.397 165.098 108.823 165.098 110.438V112.449H151.895V109.5H161.641V109.012C161.589 107.918 161.439 106.954 161.191 106.121C160.957 105.288 160.566 104.637 160.02 104.168C159.473 103.686 158.698 103.445 157.695 103.445C157.057 103.445 156.465 103.556 155.918 103.777C155.384 103.986 154.922 104.357 154.531 104.891C154.154 105.411 153.854 106.134 153.633 107.059C153.424 107.983 153.32 109.155 153.32 110.574V112.957C153.32 114.09 153.424 115.066 153.633 115.887C153.854 116.694 154.173 117.365 154.59 117.898C155.02 118.419 155.54 118.81 156.152 119.07C156.777 119.318 157.487 119.441 158.281 119.441C159.44 119.441 160.397 119.22 161.152 118.777C161.908 118.322 162.565 117.742 163.125 117.039L164.941 119.207C164.564 119.741 164.069 120.255 163.457 120.75C162.858 121.232 162.116 121.629 161.23 121.941C160.358 122.241 159.31 122.391 158.086 122.391ZM179.531 116.59C179.531 116.056 179.401 115.587 179.141 115.184C178.88 114.78 178.451 114.389 177.852 114.012C177.266 113.634 176.471 113.23 175.469 112.801C174.492 112.397 173.613 112 172.832 111.609C172.064 111.206 171.413 110.77 170.879 110.301C170.345 109.832 169.935 109.292 169.648 108.68C169.375 108.055 169.238 107.319 169.238 106.473C169.238 105.626 169.395 104.845 169.707 104.129C170.033 103.4 170.488 102.762 171.074 102.215C171.66 101.668 172.363 101.245 173.184 100.945C174.004 100.633 174.922 100.477 175.938 100.477C177.383 100.477 178.613 100.757 179.629 101.316C180.645 101.876 181.419 102.645 181.953 103.621C182.5 104.585 182.773 105.672 182.773 106.883H179.336C179.336 106.297 179.206 105.743 178.945 105.223C178.685 104.702 178.301 104.279 177.793 103.953C177.285 103.615 176.667 103.445 175.938 103.445C175.169 103.445 174.544 103.582 174.062 103.855C173.581 104.129 173.229 104.487 173.008 104.93C172.799 105.359 172.695 105.835 172.695 106.355C172.695 106.746 172.747 107.085 172.852 107.371C172.969 107.645 173.164 107.905 173.438 108.152C173.711 108.387 174.082 108.634 174.551 108.895C175.033 109.142 175.645 109.428 176.387 109.754C177.819 110.314 179.023 110.88 180 111.453C180.977 112.026 181.719 112.697 182.227 113.465C182.734 114.233 182.988 115.184 182.988 116.316C182.988 117.241 182.819 118.081 182.48 118.836C182.155 119.578 181.686 120.216 181.074 120.75C180.462 121.284 179.727 121.694 178.867 121.98C178.021 122.254 177.07 122.391 176.016 122.391C174.427 122.391 173.079 122.078 171.973 121.453C170.879 120.815 170.046 119.988 169.473 118.973C168.913 117.944 168.633 116.844 168.633 115.672H172.09C172.129 116.661 172.35 117.43 172.754 117.977C173.171 118.523 173.672 118.901 174.258 119.109C174.844 119.318 175.43 119.422 176.016 119.422C176.784 119.422 177.428 119.311 177.949 119.09C178.47 118.855 178.861 118.523 179.121 118.094C179.395 117.664 179.531 117.163 179.531 116.59Z" fill="#E1E1E6"/>
<path d="M101 196C101 196.199 100.921 196.39 100.78 196.53C100.64 196.671 100.449 196.75 100.25 196.75H85.5603L91.0306 202.219C91.1003 202.289 91.1556 202.372 91.1933 202.463C91.231 202.554 91.2504 202.651 91.2504 202.75C91.2504 202.849 91.231 202.946 91.1933 203.037C91.1556 203.128 91.1003 203.211 91.0306 203.281C90.9609 203.35 90.8782 203.406 90.7872 203.443C90.6961 203.481 90.5985 203.5 90.5 203.5C90.4014 203.5 90.3039 203.481 90.2128 203.443C90.1218 203.406 90.039 203.35 89.9694 203.281L83.2194 196.531C83.1496 196.461 83.0943 196.378 83.0566 196.287C83.0188 196.196 82.9994 196.099 82.9994 196C82.9994 195.901 83.0188 195.804 83.0566 195.713C83.0943 195.622 83.1496 195.539 83.2194 195.469L89.9694 188.719C90.1101 188.579 90.301 188.5 90.5 188.5C90.699 188.5 90.8899 188.579 91.0306 188.719C91.1713 188.86 91.2504 189.051 91.2504 189.25C91.2504 189.449 91.1713 189.64 91.0306 189.781L85.5603 195.25H100.25C100.449 195.25 100.64 195.329 100.78 195.47C100.921 195.61 101 195.801 101 196Z" fill="#F5F6F6"/>
<path d="M148.781 196.531L142.031 203.281C141.89 203.421 141.699 203.5 141.5 203.5C141.301 203.5 141.11 203.421 140.969 203.281C140.829 203.14 140.75 202.949 140.75 202.75C140.75 202.551 140.829 202.36 140.969 202.219L146.44 196.75H131.75C131.551 196.75 131.36 196.671 131.22 196.53C131.079 196.39 131 196.199 131 196C131 195.801 131.079 195.61 131.22 195.47C131.36 195.329 131.551 195.25 131.75 195.25H146.44L140.969 189.781C140.829 189.64 140.75 189.449 140.75 189.25C140.75 189.051 140.829 188.86 140.969 188.719C141.11 188.579 141.301 188.5 141.5 188.5C141.699 188.5 141.89 188.579 142.031 188.719L148.781 195.469C148.85 195.539 148.906 195.622 148.943 195.713C148.981 195.804 149.001 195.901 149.001 196C149.001 196.099 148.981 196.196 148.943 196.287C148.906 196.378 148.85 196.461 148.781 196.531Z" fill="#F5F6F6"/>
<path d="M195.281 195.031C195.211 195.1 195.128 195.156 195.037 195.193C194.946 195.231 194.849 195.251 194.75 195.251C194.651 195.251 194.554 195.231 194.463 195.193C194.372 195.156 194.289 195.1 194.219 195.031L188.75 189.56V204.25C188.75 204.449 188.671 204.64 188.53 204.78C188.39 204.921 188.199 205 188 205C187.801 205 187.61 204.921 187.47 204.78C187.329 204.64 187.25 204.449 187.25 204.25V189.56L181.781 195.031C181.64 195.171 181.449 195.25 181.25 195.25C181.051 195.25 180.86 195.171 180.719 195.031C180.579 194.89 180.5 194.699 180.5 194.5C180.5 194.301 180.579 194.11 180.719 193.969L187.469 187.219C187.539 187.15 187.622 187.094 187.713 187.057C187.804 187.019 187.901 186.999 188 186.999C188.099 186.999 188.196 187.019 188.287 187.057C188.378 187.094 188.461 187.15 188.531 187.219L195.281 193.969C195.35 194.039 195.406 194.122 195.443 194.213C195.481 194.304 195.501 194.401 195.501 194.5C195.501 194.599 195.481 194.696 195.443 194.787C195.406 194.878 195.35 194.961 195.281 195.031Z" fill="#F5F6F6"/>
<path d="M242.75 190V199.75C242.75 199.949 242.671 200.14 242.53 200.28C242.39 200.421 242.199 200.5 242 200.5C241.801 200.5 241.61 200.421 241.47 200.28C241.329 200.14 241.25 199.949 241.25 199.75V191.81L230.531 202.531C230.39 202.671 230.199 202.75 230 202.75C229.801 202.75 229.61 202.671 229.469 202.531C229.329 202.39 229.25 202.199 229.25 202C229.25 201.801 229.329 201.61 229.469 201.469L240.19 190.75H232.25C232.051 190.75 231.86 190.671 231.72 190.53C231.579 190.39 231.5 190.199 231.5 190C231.5 189.801 231.579 189.61 231.72 189.47C231.86 189.329 232.051 189.25 232.25 189.25H242C242.199 189.25 242.39 189.329 242.53 189.47C242.671 189.61 242.75 189.801 242.75 190Z" fill="#F5F6F6"/>
<path d="M293 196C293 196.199 292.921 196.39 292.78 196.53C292.64 196.671 292.449 196.75 292.25 196.75H275.75C275.551 196.75 275.36 196.671 275.22 196.53C275.079 196.39 275 196.199 275 196C275 195.801 275.079 195.61 275.22 195.47C275.36 195.329 275.551 195.25 275.75 195.25H292.25C292.449 195.25 292.64 195.329 292.78 195.47C292.921 195.61 293 195.801 293 196ZM275.75 190.75H292.25C292.449 190.75 292.64 190.671 292.78 190.53C292.921 190.39 293 190.199 293 190C293 189.801 292.921 189.61 292.78 189.47C292.64 189.329 292.449 189.25 292.25 189.25H275.75C275.551 189.25 275.36 189.329 275.22 189.47C275.079 189.61 275 189.801 275 190C275 190.199 275.079 190.39 275.22 190.53C275.36 190.671 275.551 190.75 275.75 190.75ZM292.25 201.25H275.75C275.551 201.25 275.36 201.329 275.22 201.47C275.079 201.61 275 201.801 275 202C275 202.199 275.079 202.39 275.22 202.53C275.36 202.671 275.551 202.75 275.75 202.75H292.25C292.449 202.75 292.64 202.671 292.78 202.53C292.921 202.39 293 202.199 293 202C293 201.801 292.921 201.61 292.78 201.47C292.64 201.329 292.449 201.25 292.25 201.25Z" fill="#F5F6F6"/>
<path d="M339.281 202.219C339.35 202.289 339.406 202.372 339.443 202.463C339.481 202.554 339.5 202.651 339.5 202.75C339.5 202.849 339.481 202.946 339.443 203.037C339.406 203.128 339.35 203.211 339.281 203.281C339.211 203.35 339.128 203.406 339.037 203.443C338.946 203.481 338.849 203.5 338.75 203.5C338.652 203.5 338.554 203.481 338.463 203.443C338.372 203.406 338.289 203.35 338.219 203.281L332 197.06L325.781 203.281C325.64 203.421 325.449 203.5 325.25 203.5C325.051 203.5 324.86 203.421 324.719 203.281C324.579 203.14 324.5 202.949 324.5 202.75C324.5 202.551 324.579 202.36 324.719 202.219L330.94 196L324.719 189.781C324.579 189.64 324.5 189.449 324.5 189.25C324.5 189.051 324.579 188.86 324.719 188.719C324.86 188.579 325.051 188.5 325.25 188.5C325.449 188.5 325.64 188.579 325.781 188.719L332 194.94L338.219 188.719C338.36 188.579 338.551 188.5 338.75 188.5C338.949 188.5 339.14 188.579 339.281 188.719C339.421 188.86 339.5 189.051 339.5 189.25C339.5 189.449 339.421 189.64 339.281 189.781L333.06 196L339.281 202.219Z" fill="#F5F6F6"/>
<path d="M380 186.25C378.072 186.25 376.187 186.822 374.583 187.893C372.98 188.965 371.73 190.487 370.992 192.269C370.254 194.05 370.061 196.011 370.437 197.902C370.814 199.793 371.742 201.531 373.106 202.894C374.469 204.258 376.207 205.186 378.098 205.563C379.989 205.939 381.95 205.746 383.731 205.008C385.513 204.27 387.035 203.02 388.107 201.417C389.178 199.813 389.75 197.928 389.75 196C389.747 193.415 388.719 190.937 386.891 189.109C385.063 187.281 382.585 186.253 380 186.25ZM388.215 195.25H384.481C384.349 192.582 383.518 190.05 382.126 188.031C383.757 188.469 385.214 189.395 386.303 190.686C387.391 191.976 388.059 193.569 388.215 195.25ZM380 204.24C378.244 202.339 377.179 199.646 377.022 196.75H382.978C382.821 199.644 381.756 202.339 380 204.24ZM377.022 195.25C377.179 192.356 378.24 189.661 380 187.76C381.756 189.661 382.821 192.354 382.978 195.25H377.022ZM377.874 188.031C376.482 190.05 375.651 192.582 375.519 195.25H371.785C371.941 193.569 372.609 191.976 373.697 190.686C374.786 189.395 376.243 188.469 377.874 188.031ZM371.785 196.75H375.519C375.651 199.418 376.482 201.95 377.874 203.969C376.243 203.531 374.786 202.605 373.697 201.314C372.609 200.024 371.941 198.431 371.785 196.75ZM382.126 203.969C383.518 201.948 384.349 199.415 384.481 196.75H388.215C388.059 198.431 387.391 200.024 386.303 201.314C385.214 202.605 383.757 203.531 382.126 203.969Z" fill="#F5F6F6"/>
<path d="M435.761 187.68L423.55 185.523C423.158 185.455 422.755 185.544 422.429 185.772C422.103 186 421.881 186.349 421.812 186.74L419.023 202.584C418.989 202.778 418.994 202.977 419.037 203.169C419.079 203.362 419.16 203.544 419.273 203.705C419.386 203.867 419.53 204.004 419.696 204.11C419.862 204.215 420.048 204.287 420.242 204.321L432.453 206.478C432.647 206.512 432.846 206.507 433.039 206.465C433.231 206.422 433.413 206.342 433.575 206.228C433.736 206.115 433.874 205.971 433.98 205.805C434.085 205.639 434.157 205.453 434.191 205.259L436.98 189.415C437.049 189.023 436.958 188.62 436.73 188.295C436.501 187.969 436.152 187.748 435.761 187.68ZM432.712 205L420.5 202.844L423.289 187L435.5 189.156L432.712 205ZM424.376 189.477C424.41 189.281 424.521 189.107 424.684 188.993C424.847 188.879 425.049 188.835 425.245 188.869L433.026 190.243C433.211 190.275 433.377 190.376 433.491 190.525C433.606 190.674 433.66 190.86 433.644 191.047C433.627 191.234 433.541 191.408 433.403 191.535C433.264 191.662 433.083 191.732 432.896 191.732C432.852 191.732 432.808 191.728 432.764 191.72L424.983 190.346C424.787 190.311 424.613 190.2 424.499 190.037C424.385 189.874 424.341 189.673 424.376 189.477ZM423.856 192.432C423.873 192.335 423.909 192.242 423.962 192.159C424.015 192.076 424.084 192.004 424.165 191.948C424.245 191.891 424.336 191.851 424.433 191.83C424.529 191.808 424.628 191.806 424.725 191.823L432.507 193.198C432.693 193.229 432.86 193.329 432.976 193.479C433.091 193.628 433.146 193.815 433.13 194.003C433.113 194.191 433.026 194.366 432.887 194.493C432.747 194.62 432.564 194.689 432.375 194.688C432.331 194.688 432.287 194.684 432.243 194.675L424.462 193.302C424.266 193.267 424.093 193.155 423.979 192.992C423.865 192.829 423.821 192.628 423.856 192.432ZM423.336 195.386C423.371 195.191 423.483 195.017 423.645 194.904C423.808 194.791 424.01 194.747 424.205 194.781L428.094 195.465C428.279 195.497 428.445 195.598 428.559 195.746C428.673 195.895 428.728 196.081 428.711 196.268C428.695 196.455 428.609 196.629 428.471 196.756C428.333 196.883 428.152 196.953 427.964 196.953C427.92 196.953 427.876 196.95 427.833 196.942L423.942 196.255C423.747 196.22 423.573 196.109 423.459 195.946C423.346 195.783 423.301 195.582 423.336 195.386Z" fill="#F5F6F6"/>
<path d="M486.5 193C486.5 193.199 486.421 193.39 486.28 193.53C486.14 193.671 485.949 193.75 485.75 193.75H484.25V195.25C484.25 195.449 484.171 195.64 484.03 195.78C483.89 195.921 483.699 196 483.5 196C483.301 196 483.11 195.921 482.97 195.78C482.829 195.64 482.75 195.449 482.75 195.25V193.75H481.25C481.051 193.75 480.86 193.671 480.72 193.53C480.579 193.39 480.5 193.199 480.5 193C480.5 192.801 480.579 192.61 480.72 192.47C480.86 192.329 481.051 192.25 481.25 192.25H482.75V190.75C482.75 190.551 482.829 190.36 482.97 190.22C483.11 190.079 483.301 190 483.5 190C483.699 190 483.89 190.079 484.03 190.22C484.171 190.36 484.25 190.551 484.25 190.75V192.25H485.75C485.949 192.25 486.14 192.329 486.28 192.47C486.421 192.61 486.5 192.801 486.5 193ZM477.5 189.25H478.25V190C478.25 190.199 478.329 190.39 478.47 190.53C478.61 190.671 478.801 190.75 479 190.75C479.199 190.75 479.39 190.671 479.53 190.53C479.671 190.39 479.75 190.199 479.75 190V189.25H480.5C480.699 189.25 480.89 189.171 481.03 189.03C481.171 188.89 481.25 188.699 481.25 188.5C481.25 188.301 481.171 188.11 481.03 187.97C480.89 187.829 480.699 187.75 480.5 187.75H479.75V187C479.75 186.801 479.671 186.61 479.53 186.47C479.39 186.329 479.199 186.25 479 186.25C478.801 186.25 478.61 186.329 478.47 186.47C478.329 186.61 478.25 186.801 478.25 187V187.75H477.5C477.301 187.75 477.11 187.829 476.97 187.97C476.829 188.11 476.75 188.301 476.75 188.5C476.75 188.699 476.829 188.89 476.97 189.03C477.11 189.171 477.301 189.25 477.5 189.25ZM484.322 198.344C484.409 198.445 484.468 198.569 484.491 198.7C484.515 198.832 484.503 198.968 484.456 199.094C483.936 200.513 483.066 201.778 481.928 202.773C480.789 203.768 479.419 204.459 477.943 204.785C476.466 205.11 474.932 205.058 473.481 204.634C472.03 204.21 470.709 203.427 469.641 202.358C468.572 201.288 467.79 199.967 467.367 198.516C466.943 197.065 466.892 195.53 467.218 194.054C467.544 192.578 468.237 191.208 469.232 190.07C470.227 188.932 471.493 188.063 472.913 187.544C473.038 187.498 473.173 187.486 473.304 187.51C473.434 187.533 473.557 187.591 473.658 187.678C473.759 187.764 473.835 187.876 473.879 188.002C473.923 188.128 473.932 188.263 473.907 188.393C473.644 189.723 473.713 191.098 474.107 192.395C474.501 193.693 475.209 194.873 476.168 195.832C477.127 196.791 478.307 197.498 479.605 197.893C480.902 198.287 482.277 198.356 483.607 198.093C483.738 198.068 483.873 198.078 483.998 198.122C484.124 198.166 484.236 198.242 484.322 198.344ZM482.504 199.739C482.337 199.747 482.168 199.752 482 199.752C479.415 199.749 476.936 198.721 475.108 196.892C473.28 195.064 472.252 192.585 472.25 190C472.25 189.832 472.25 189.663 472.263 189.496C471.265 190.07 470.413 190.866 469.772 191.823C469.132 192.779 468.72 193.871 468.569 195.012C468.418 196.153 468.531 197.314 468.901 198.404C469.271 199.495 469.886 200.485 470.7 201.299C471.515 202.114 472.505 202.729 473.596 203.099C474.686 203.469 475.847 203.582 476.988 203.431C478.129 203.28 479.221 202.868 480.177 202.228C481.134 201.587 481.93 200.735 482.504 199.737V199.739Z" fill="#F5F6F6"/>
<path d="M523.25 187.75V187C523.25 186.801 523.329 186.61 523.47 186.47C523.61 186.329 523.801 186.25 524 186.25C524.199 186.25 524.39 186.329 524.53 186.47C524.671 186.61 524.75 186.801 524.75 187V187.75C524.75 187.949 524.671 188.14 524.53 188.28C524.39 188.421 524.199 188.5 524 188.5C523.801 188.5 523.61 188.421 523.47 188.28C523.329 188.14 523.25 187.949 523.25 187.75ZM530 196C530 197.187 529.648 198.347 528.989 199.333C528.33 200.32 527.392 201.089 526.296 201.543C525.2 201.997 523.993 202.116 522.829 201.885C521.666 201.653 520.596 201.082 519.757 200.243C518.918 199.404 518.347 198.334 518.115 197.171C517.884 196.007 518.003 194.8 518.457 193.704C518.911 192.608 519.68 191.67 520.667 191.011C521.653 190.352 522.813 190 524 190C525.591 190.002 527.116 190.634 528.241 191.759C529.366 192.884 529.998 194.409 530 196ZM528.5 196C528.5 195.11 528.236 194.24 527.742 193.5C527.247 192.76 526.544 192.183 525.722 191.843C524.9 191.502 523.995 191.413 523.122 191.586C522.249 191.76 521.447 192.189 520.818 192.818C520.189 193.447 519.76 194.249 519.586 195.122C519.413 195.995 519.502 196.9 519.843 197.722C520.183 198.544 520.76 199.247 521.5 199.742C522.24 200.236 523.11 200.5 524 200.5C525.193 200.499 526.337 200.024 527.181 199.181C528.024 198.337 528.499 197.193 528.5 196ZM517.469 190.531C517.61 190.671 517.801 190.75 518 190.75C518.199 190.75 518.39 190.671 518.531 190.531C518.671 190.39 518.75 190.199 518.75 190C518.75 189.801 518.671 189.61 518.531 189.469L517.781 188.719C517.64 188.579 517.449 188.5 517.25 188.5C517.051 188.5 516.86 188.579 516.719 188.719C516.579 188.86 516.5 189.051 516.5 189.25C516.5 189.449 516.579 189.64 516.719 189.781L517.469 190.531ZM517.469 201.469L516.719 202.219C516.579 202.36 516.5 202.551 516.5 202.75C516.5 202.949 516.579 203.14 516.719 203.281C516.86 203.421 517.051 203.5 517.25 203.5C517.449 203.5 517.64 203.421 517.781 203.281L518.531 202.531C518.6 202.461 518.656 202.378 518.693 202.287C518.731 202.196 518.75 202.099 518.75 202C518.75 201.901 518.731 201.804 518.693 201.713C518.656 201.622 518.6 201.539 518.531 201.469C518.461 201.4 518.378 201.344 518.287 201.307C518.196 201.269 518.099 201.25 518 201.25C517.901 201.25 517.804 201.269 517.713 201.307C517.622 201.344 517.539 201.4 517.469 201.469ZM530 190.75C530.099 190.75 530.196 190.731 530.287 190.693C530.378 190.655 530.461 190.6 530.531 190.531L531.281 189.781C531.421 189.64 531.5 189.449 531.5 189.25C531.5 189.051 531.421 188.86 531.281 188.719C531.14 188.579 530.949 188.5 530.75 188.5C530.551 188.5 530.36 188.579 530.219 188.719L529.469 189.469C529.364 189.574 529.293 189.708 529.264 189.854C529.235 189.999 529.25 190.15 529.307 190.287C529.363 190.424 529.46 190.541 529.583 190.624C529.706 190.706 529.852 190.75 530 190.75ZM530.531 201.469C530.39 201.329 530.199 201.25 530 201.25C529.801 201.25 529.61 201.329 529.469 201.469C529.329 201.61 529.25 201.801 529.25 202C529.25 202.199 529.329 202.39 529.469 202.531L530.219 203.281C530.289 203.35 530.372 203.406 530.463 203.443C530.554 203.481 530.651 203.5 530.75 203.5C530.849 203.5 530.946 203.481 531.037 203.443C531.128 203.406 531.211 203.35 531.281 203.281C531.35 203.211 531.406 203.128 531.443 203.037C531.481 202.946 531.5 202.849 531.5 202.75C531.5 202.651 531.481 202.554 531.443 202.463C531.406 202.372 531.35 202.289 531.281 202.219L530.531 201.469ZM515.75 195.25H515C514.801 195.25 514.61 195.329 514.47 195.47C514.329 195.61 514.25 195.801 514.25 196C514.25 196.199 514.329 196.39 514.47 196.53C514.61 196.671 514.801 196.75 515 196.75H515.75C515.949 196.75 516.14 196.671 516.28 196.53C516.421 196.39 516.5 196.199 516.5 196C516.5 195.801 516.421 195.61 516.28 195.47C516.14 195.329 515.949 195.25 515.75 195.25ZM524 203.5C523.801 203.5 523.61 203.579 523.47 203.72C523.329 203.86 523.25 204.051 523.25 204.25V205C523.25 205.199 523.329 205.39 523.47 205.53C523.61 205.671 523.801 205.75 524 205.75C524.199 205.75 524.39 205.671 524.53 205.53C524.671 205.39 524.75 205.199 524.75 205V204.25C524.75 204.051 524.671 203.86 524.53 203.72C524.39 203.579 524.199 203.5 524 203.5ZM533 195.25H532.25C532.051 195.25 531.86 195.329 531.72 195.47C531.579 195.61 531.5 195.801 531.5 196C531.5 196.199 531.579 196.39 531.72 196.53C531.86 196.671 532.051 196.75 532.25 196.75H533C533.199 196.75 533.39 196.671 533.53 196.53C533.671 196.39 533.75 196.199 533.75 196C533.75 195.801 533.671 195.61 533.53 195.47C533.39 195.329 533.199 195.25 533 195.25Z" fill="#F5F6F6"/>
<path d="M84.6641 268.539V267.32H87.6953C88.2839 267.32 88.7578 267.227 89.1172 267.039C89.4818 266.846 89.7474 266.583 89.9141 266.25C90.0859 265.917 90.1719 265.536 90.1719 265.109C90.1719 264.719 90.0859 264.352 89.9141 264.008C89.7474 263.664 89.4818 263.385 89.1172 263.172C88.7578 262.958 88.2839 262.852 87.6953 262.852H85.0078V273H83.4922V261.625H87.6953C88.5547 261.625 89.2812 261.773 89.875 262.07C90.4688 262.367 90.9193 262.776 91.2266 263.297C91.5339 263.818 91.6875 264.417 91.6875 265.094C91.6875 265.823 91.5339 266.445 91.2266 266.961C90.9193 267.477 90.4688 267.87 89.875 268.141C89.2812 268.406 88.5547 268.539 87.6953 268.539H84.6641ZM97.8125 273H96.3125V261.625H97.8125V273ZM101.461 262.852H92.6719V261.625H101.461V262.852Z" fill="#F5F6F6"/>
<path d="M138.289 273H132.281V271.781H138.289V273ZM132.578 273H131.062V261.625H132.578V273ZM137.492 267.734H132.281V266.516H137.492V267.734ZM138.211 262.852H132.281V261.625H138.211V262.852ZM148.906 273H147.383L141.672 264.203V273H140.156V261.625H141.672L147.406 270.445V261.625H148.906V273Z" fill="#F5F6F6"/>
<path d="M92 329.5C86.2016 329.5 81.5 334.323 81.5 340.267C81.5 345.025 84.5094 349.056 88.6812 350.481C88.7398 350.494 88.7995 350.5 88.8594 350.5C89.2484 350.5 89.3984 350.214 89.3984 349.966C89.3984 349.708 89.3891 349.033 89.3844 348.133C89.0371 348.214 88.6817 348.257 88.325 348.259C86.3047 348.259 85.8453 346.689 85.8453 346.689C85.3672 345.447 84.6781 345.114 84.6781 345.114C83.7641 344.472 84.6734 344.453 84.7437 344.453H84.7484C85.8031 344.547 86.3563 345.569 86.3563 345.569C86.8813 346.487 87.5844 346.745 88.2125 346.745C88.6278 346.737 89.0367 346.641 89.4125 346.464C89.5063 345.77 89.7781 345.297 90.0781 345.025C87.7484 344.753 85.2969 343.83 85.2969 339.705C85.2969 338.528 85.7047 337.567 86.375 336.817C86.2672 336.545 85.9062 335.448 86.4781 333.967C86.5548 333.949 86.6337 333.941 86.7125 333.944C87.0922 333.944 87.95 334.089 89.3656 335.073C91.0857 334.592 92.9049 334.592 94.625 335.073C96.0406 334.089 96.8984 333.944 97.2781 333.944C97.3569 333.941 97.4358 333.949 97.5125 333.967C98.0844 335.448 97.7234 336.545 97.6156 336.817C98.2859 337.572 98.6937 338.533 98.6937 339.705C98.6937 343.839 96.2375 344.748 93.8984 345.016C94.2734 345.348 94.6109 346.005 94.6109 347.008C94.6109 348.447 94.5969 349.609 94.5969 349.961C94.5969 350.214 94.7422 350.5 95.1312 350.5C95.1942 350.5 95.2571 350.494 95.3187 350.481C99.4953 349.056 102.5 345.02 102.5 340.267C102.5 334.323 97.7984 329.5 92 329.5Z" fill="#F5F6F6"/>
<path d="M148.82 329.5H131.294C130.337 329.5 129.5 330.189 129.5 331.135V348.7C129.5 349.652 130.337 350.5 131.294 350.5H148.815C149.778 350.5 150.5 349.646 150.5 348.7V331.135C150.506 330.189 149.778 329.5 148.82 329.5ZM136.01 347.005H133.001V337.651H136.01V347.005ZM134.609 336.228H134.588C133.625 336.228 133.002 335.512 133.002 334.615C133.002 333.701 133.641 333.001 134.626 333.001C135.61 333.001 136.213 333.696 136.234 334.615C136.234 335.512 135.61 336.228 134.609 336.228ZM147.005 347.005H143.996V341.89C143.996 340.665 143.558 339.828 142.47 339.828C141.638 339.828 141.146 340.39 140.927 340.938C140.845 341.135 140.823 341.403 140.823 341.677V347.005H137.815V337.651H140.823V338.952C141.261 338.329 141.945 337.432 143.536 337.432C145.511 337.432 147.005 338.733 147.005 341.54L147.005 347.005Z" fill="#F5F6F6"/>
<path d="M192.375 331.25C193.534 331.253 194.645 331.715 195.465 332.535C196.285 333.355 196.747 334.466 196.75 335.625V344.375C196.747 345.534 196.285 346.645 195.465 347.465C194.645 348.285 193.534 348.747 192.375 348.75H183.625C182.466 348.747 181.355 348.285 180.535 347.465C179.715 346.645 179.253 345.534 179.25 344.375V335.625C179.253 334.466 179.715 333.355 180.535 332.535C181.355 331.715 182.466 331.253 183.625 331.25H192.375ZM192.375 329.5H183.625C180.256 329.5 177.5 332.256 177.5 335.625V344.375C177.5 347.744 180.256 350.5 183.625 350.5H192.375C195.744 350.5 198.5 347.744 198.5 344.375V335.625C198.5 332.256 195.744 329.5 192.375 329.5Z" fill="#F5F6F6"/>
<path d="M193.687 335.625C193.428 335.625 193.174 335.548 192.958 335.404C192.742 335.26 192.574 335.055 192.475 334.815C192.375 334.575 192.349 334.311 192.4 334.057C192.451 333.802 192.576 333.568 192.759 333.385C192.943 333.201 193.177 333.076 193.431 333.025C193.686 332.975 193.95 333.001 194.19 333.1C194.429 333.199 194.634 333.368 194.779 333.583C194.923 333.799 195 334.053 195 334.313C195 334.485 194.967 334.656 194.901 334.815C194.835 334.975 194.738 335.12 194.616 335.242C194.494 335.363 194.349 335.46 194.19 335.526C194.031 335.592 193.86 335.625 193.687 335.625ZM188 336.5C188.692 336.5 189.369 336.705 189.945 337.09C190.52 337.474 190.969 338.021 191.234 338.661C191.499 339.3 191.568 340.004 191.433 340.683C191.298 341.362 190.964 341.985 190.475 342.475C189.985 342.964 189.362 343.298 188.683 343.433C188.004 343.568 187.3 343.499 186.661 343.234C186.021 342.969 185.474 342.52 185.09 341.945C184.705 341.369 184.5 340.692 184.5 340C184.501 339.072 184.87 338.182 185.526 337.526C186.182 336.87 187.072 336.501 188 336.5ZM188 334.75C186.962 334.75 185.947 335.058 185.083 335.635C184.22 336.212 183.547 337.032 183.15 337.991C182.752 338.95 182.648 340.006 182.851 341.024C183.053 342.043 183.553 342.978 184.288 343.712C185.022 344.447 185.957 344.947 186.976 345.149C187.994 345.352 189.05 345.248 190.009 344.85C190.968 344.453 191.788 343.78 192.365 342.917C192.942 342.053 193.25 341.038 193.25 340C193.25 338.608 192.697 337.272 191.712 336.288C190.728 335.303 189.392 334.75 188 334.75Z" fill="#F5F6F6"/>
<g clip-path="url(#clip0_805_5404)">
<path fill-rule="evenodd" clip-rule="evenodd" d="M103.736 400.264H80.2642V423.736H103.736V400.264ZM98.8765 415.329C100.945 416.168 101.643 417.067 101.815 418.138C101.98 419.06 101.775 419.657 101.744 419.747C100.981 422.357 96.7259 422.442 95.0257 420.717C94.9743 420.659 94.9257 420.605 94.8795 420.554C94.6023 420.246 94.4106 420.033 94.2269 419.631C94.6847 419.368 94.9106 419.238 95.1363 419.107C95.3562 418.981 95.5759 418.853 96.0097 418.602C96.4872 419.337 96.929 419.74 97.7232 419.905C98.801 420.037 99.8853 419.667 99.6421 418.522C99.4972 417.98 98.7787 417.676 97.9409 417.321C97.3334 417.064 96.6632 416.78 96.1034 416.36C94.7514 415.452 94.4345 413.245 95.5456 411.985C95.9159 411.518 96.5474 411.171 97.21 411.003L97.9015 410.914C99.229 410.887 100.059 411.237 100.668 411.918C100.838 412.089 100.976 412.275 101.235 412.676C101.088 412.77 100.972 412.844 100.871 412.908C100.485 413.154 100.32 413.259 99.5169 413.778C99.3003 413.312 98.9412 413.02 98.5619 412.893C97.973 412.714 97.2299 412.908 97.076 413.531C97.0224 413.723 97.0336 413.901 97.1184 414.218C97.3116 414.659 97.8732 414.898 98.4612 415.148C98.5997 415.207 98.7396 415.266 98.8765 415.329ZM90.8287 411.052H93.0241C93.0241 411.722 93.0253 412.391 93.0265 413.059C93.029 414.406 93.0314 415.751 93.0239 417.096C93.0246 417.279 93.0275 417.458 93.0303 417.635C93.0469 418.655 93.0618 419.582 92.6358 420.367C92.29 421.07 91.6297 421.532 90.8643 421.755C89.6883 422.025 88.5639 421.871 87.7272 421.369C87.1672 421.025 86.7299 420.496 86.4331 419.887L88.2181 418.794C88.2323 418.8 88.2717 418.869 88.3249 418.963C88.3308 418.973 88.3369 418.984 88.3432 418.995C88.5706 419.376 88.7669 419.646 89.153 419.836C89.5323 419.965 90.3646 420.048 90.6858 419.381C90.8424 419.11 90.8343 418.351 90.8247 417.442C90.8222 417.212 90.8197 416.972 90.8197 416.728L90.8287 411.052Z" fill="#F5F6F6"/>
</g>
<path fill-rule="evenodd" clip-rule="evenodd" d="M146.825 408.044C147.275 408.175 147.706 408.325 148.119 408.475C150.463 409.375 151.738 410.613 151.738 412C151.738 413.388 150.463 414.625 148.119 415.525C147.706 415.694 147.275 415.825 146.825 415.956C146.938 416.406 147.031 416.856 147.106 417.288C147.5 419.744 147.069 421.488 145.869 422.181C145.513 422.388 145.119 422.481 144.669 422.481C143.356 422.481 141.688 421.506 140 419.875C138.331 421.506 136.663 422.481 135.331 422.481C134.881 422.481 134.488 422.388 134.131 422.181C132.931 421.506 132.5 419.763 132.894 417.288C132.969 416.856 133.063 416.406 133.175 415.956C132.725 415.825 132.294 415.675 131.881 415.525C129.556 414.625 128.263 413.388 128.263 412C128.263 410.613 129.538 409.375 131.881 408.475C132.294 408.306 132.725 408.175 133.175 408.044C133.063 407.594 132.969 407.144 132.894 406.713C132.5 404.256 132.931 402.513 134.131 401.819C134.488 401.613 134.881 401.519 135.331 401.519C136.644 401.519 138.313 402.494 140 404.125C141.688 402.494 143.356 401.519 144.669 401.519C145.119 401.519 145.513 401.613 145.869 401.819C147.069 402.494 147.5 404.238 147.106 406.713C147.031 407.144 146.938 407.594 146.825 408.044ZM146.056 406.563C146.375 404.594 146.113 403.206 145.344 402.756C145.156 402.644 144.931 402.588 144.688 402.588C143.544 402.588 142.138 403.525 140.75 404.894C141.406 405.625 142.063 406.431 142.7 407.331C143.788 407.425 144.819 407.575 145.794 407.8C145.906 407.369 146 406.956 146.056 406.563ZM142.1 415.675C142.513 415.075 142.906 414.475 143.244 413.875C143.6 413.238 143.919 412.619 144.238 412L144.238 412C143.938 411.381 143.6 410.744 143.244 410.125C142.906 409.525 142.531 408.925 142.119 408.325C141.444 408.269 140.75 408.25 140.019 408.25C139.306 408.25 138.613 408.269 137.919 408.325C137.506 408.925 137.113 409.525 136.775 410.125C136.419 410.744 136.081 411.381 135.781 412C136.081 412.619 136.419 413.256 136.775 413.875C137.113 414.475 137.488 415.075 137.9 415.675C138.575 415.731 139.269 415.75 140 415.75C140.713 415.75 141.406 415.731 142.1 415.675ZM145.513 415.188C145.306 414.55 145.081 413.913 144.8 413.256C144.728 413.388 144.655 413.522 144.582 413.657C144.447 413.908 144.309 414.163 144.163 414.419C143.982 414.765 143.772 415.096 143.571 415.413C143.543 415.457 143.515 415.5 143.488 415.544C144.2 415.45 144.875 415.338 145.513 415.188ZM138.706 416.781C139.119 417.325 139.55 417.85 140 418.338C140.45 417.85 140.881 417.325 141.294 416.781C140.863 416.8 140.431 416.819 140 416.819C139.569 416.819 139.138 416.8 138.706 416.781ZM134.488 415.169C135.125 415.319 135.8 415.431 136.513 415.525C136.456 415.431 136.4 415.339 136.344 415.246C136.175 414.968 136.006 414.691 135.838 414.381C135.671 414.104 135.515 413.816 135.362 413.534C135.308 413.434 135.254 413.335 135.2 413.238C134.919 413.894 134.694 414.55 134.488 415.169ZM134.488 408.813C134.694 409.45 134.919 410.088 135.2 410.744C135.273 410.612 135.345 410.478 135.418 410.343C135.553 410.092 135.692 409.837 135.838 409.581C136.019 409.236 136.229 408.904 136.43 408.588C136.457 408.544 136.485 408.5 136.513 408.456C135.8 408.55 135.125 408.663 134.488 408.813ZM141.294 407.219C140.881 406.675 140.45 406.15 140 405.663C139.55 406.15 139.119 406.675 138.706 407.219L138.706 407.219C139.138 407.2 139.569 407.181 140 407.181C140.431 407.181 140.863 407.2 141.294 407.219L141.294 407.219ZM143.488 408.475L144.163 409.6C144.388 409.975 144.594 410.369 144.8 410.762L144.8 410.763C145.081 410.106 145.306 409.45 145.513 408.831C144.875 408.681 144.2 408.569 143.488 408.475ZM134.656 402.756C133.888 403.206 133.625 404.594 133.944 406.563C133.951 406.6 133.958 406.637 133.965 406.675C134.034 407.035 134.105 407.41 134.206 407.8C135.181 407.594 136.213 407.425 137.3 407.331C137.938 406.431 138.594 405.606 139.25 404.894C137.844 403.506 136.438 402.588 135.313 402.588C135.069 402.588 134.844 402.644 134.656 402.756ZM132.256 409.488C130.381 410.181 129.313 411.119 129.313 412C129.313 413.05 130.869 414.175 133.456 414.925C133.738 413.988 134.131 413.013 134.581 412.019C134.131 411.025 133.756 410.031 133.456 409.094C133.044 409.206 132.631 409.338 132.256 409.488ZM133.944 417.438C133.625 419.406 133.888 420.794 134.656 421.244C134.844 421.356 135.069 421.413 135.313 421.413C136.456 421.413 137.863 420.475 139.25 419.106C138.594 418.375 137.938 417.569 137.3 416.669C136.213 416.575 135.181 416.425 134.206 416.2C134.094 416.631 134 417.044 133.944 417.438ZM145.344 421.244C146.113 420.794 146.375 419.406 146.056 417.438C146.049 417.4 146.042 417.363 146.035 417.325C145.967 416.965 145.896 416.59 145.794 416.2C144.819 416.406 143.788 416.575 142.7 416.669C142.063 417.569 141.406 418.394 140.75 419.106C142.156 420.494 143.563 421.413 144.688 421.413C144.931 421.413 145.156 421.356 145.344 421.244ZM146.544 414.906C146.956 414.794 147.369 414.663 147.744 414.513C149.6 413.819 150.688 412.881 150.688 412C150.688 410.95 149.131 409.825 146.544 409.075C146.263 410.013 145.869 410.988 145.419 411.981C145.869 412.975 146.244 413.969 146.544 414.906ZM142.137 412C142.137 413.181 141.18 414.138 140 414.138C138.819 414.138 137.862 413.181 137.862 412C137.862 410.82 138.819 409.863 140 409.863C141.18 409.863 142.137 410.82 142.137 412Z" fill="#F5F6F6"/>
<path d="M197.145 405.688L188.876 400.887C188.355 400.59 187.676 400.59 187.15 400.887L178.794 405.688C178.256 405.997 177.875 406.579 177.875 407.201V416.79C177.875 417.413 178.266 417.995 178.804 418.306L181.012 419.56C182.067 420.08 182.44 420.08 182.92 420.08C184.483 420.08 185.375 419.135 185.375 417.487V408.02C185.375 407.886 185.305 407.688 185.174 407.688H184.12C183.986 407.688 183.688 407.886 183.688 408.02V417.487C183.688 418.217 183.027 418.944 181.792 418.327L179.511 417.012C179.431 416.969 179.375 416.882 179.375 416.79V407.201C179.375 407.111 179.479 407.02 179.559 406.974L187.889 402.181C187.966 402.137 188.081 402.137 188.158 402.181L196.386 406.973C196.465 407.02 196.437 407.108 196.437 407.201V416.79C196.437 416.882 196.472 416.971 196.394 417.015L188.128 421.811C188.057 421.853 187.969 421.853 187.891 421.811L185.771 420.545C185.707 420.508 185.631 420.495 185.57 420.529C184.98 420.863 184.871 420.908 184.318 421.1C184.182 421.147 183.981 421.229 184.395 421.461L187.17 423.103C187.434 423.256 187.735 423.336 188.041 423.336C188.349 423.336 188.65 423.256 188.916 423.103L197.144 418.306C197.682 417.993 197.938 417.413 197.938 416.79V407.201C197.938 406.579 197.683 405.999 197.145 405.688ZM190.608 415.271C188.41 415.271 187.925 414.664 187.764 413.571C187.745 413.453 187.645 413.313 187.525 413.313H186.451C186.318 413.313 186.211 413.474 186.211 413.606C186.211 415.006 186.972 416.702 190.608 416.702C193.241 416.702 194.75 415.679 194.75 413.869C194.75 412.074 193.537 411.603 190.984 411.266C188.404 410.925 188.142 410.752 188.142 410.148C188.142 409.649 188.364 408.985 190.275 408.985C191.982 408.985 192.611 409.351 192.87 410.502C192.892 410.61 192.991 410.688 193.102 410.688H194.181C194.248 410.688 194.311 410.661 194.358 410.613C194.403 410.562 194.426 410.498 194.42 410.43C194.253 408.448 192.937 407.525 190.274 407.525C187.906 407.525 186.493 408.525 186.493 410.201C186.493 412.02 187.899 412.522 190.172 412.747C192.892 413.014 193.104 413.411 193.104 413.946C193.104 414.875 192.358 415.271 190.608 415.271Z" fill="#F5F6F6"/>
<g clip-path="url(#clip1_805_5404)">
<path d="M236.001 404.8C232.801 404.8 230.801 406.4 230.001 409.6C231.2 408 232.601 407.4 234.2 407.8C235.114 408.028 235.766 408.69 236.489 409.424C237.666 410.618 239.027 412 242.001 412C245.201 412 247.2 410.4 248.001 407.2C246.801 408.8 245.401 409.4 243.801 409C242.888 408.772 242.236 408.11 241.512 407.376C240.336 406.182 238.975 404.8 236.001 404.8ZM230.001 412C226.801 412 224.801 413.6 224.001 416.8C225.2 415.2 226.601 414.6 228.2 415C229.114 415.228 229.766 415.89 230.489 416.624C231.666 417.818 233.027 419.2 236.001 419.2C239.201 419.2 241.2 417.6 242.001 414.4C240.801 416 239.401 416.6 237.801 416.2C236.888 415.972 236.236 415.31 235.512 414.576C234.336 413.382 232.975 412 230.001 412Z" fill="#F5F6F6"/>
</g>
<g clip-path="url(#clip2_805_5404)">
<path d="M281.249 411.625H286.717C288.239 411.625 289.437 410.337 289.437 408.809V403.597C289.437 402.113 288.194 400.999 286.708 400.751C285.768 400.595 284.797 400.524 283.861 400.528C282.925 400.532 282.059 400.612 281.272 400.751C278.956 401.16 278.562 402.017 278.562 403.597V405.625H284V406.375H276.458C274.867 406.375 273.474 407.333 273.039 409.152C272.536 411.237 272.514 412.512 273.039 414.689C273.428 416.309 274.357 417.438 275.948 417.438H277.812V414.991C277.812 413.184 279.393 411.625 281.249 411.625ZM280.905 404.292C280.337 404.292 279.878 403.827 279.878 403.252C279.878 402.675 280.337 402.206 280.905 402.206C281.47 402.206 281.932 402.675 281.932 403.252C281.932 403.827 281.47 404.292 280.905 404.292ZM294.928 409.152C294.534 407.568 293.783 406.375 292.19 406.375H290.187V408.809C290.187 410.693 288.539 412.188 286.717 412.188H281.249C279.752 412.188 278.562 413.561 278.562 415.061V420.274C278.562 421.757 279.827 422.629 281.274 423.055C283.007 423.564 284.648 423.657 286.721 423.055C288.099 422.656 289.437 421.853 289.437 420.274V418.188H284V417.438H292.19C293.781 417.438 294.374 416.355 294.928 414.689C295.499 412.974 295.474 411.351 294.928 409.152ZM287.061 419.578C287.629 419.578 288.088 420.043 288.088 420.618C288.088 421.195 287.629 421.664 287.061 421.664C286.496 421.664 286.034 421.195 286.034 420.618C286.034 420.043 286.496 419.578 287.061 419.578Z" fill="#F5F6F6"/>
</g>
<rect x="80" y="472" width="549" height="58" rx="8" fill="#121214"/>
<path d="M107.754 501.182C107.754 502.424 107.526 503.492 107.072 504.386C106.617 505.277 105.994 505.962 105.202 506.443C104.415 506.92 103.519 507.159 102.515 507.159C101.507 507.159 100.608 506.92 99.8161 506.443C99.0282 505.962 98.407 505.275 97.9524 504.381C97.4979 503.487 97.2706 502.42 97.2706 501.182C97.2706 499.939 97.4979 498.873 97.9524 497.983C98.407 497.089 99.0282 496.403 99.8161 495.926C100.608 495.445 101.507 495.205 102.515 495.205C103.519 495.205 104.415 495.445 105.202 495.926C105.994 496.403 106.617 497.089 107.072 497.983C107.526 498.873 107.754 499.939 107.754 501.182ZM106.015 501.182C106.015 500.235 105.862 499.437 105.555 498.79C105.252 498.138 104.835 497.646 104.305 497.312C103.778 496.975 103.182 496.807 102.515 496.807C101.844 496.807 101.246 496.975 100.719 497.312C100.193 497.646 99.7763 498.138 99.4695 498.79C99.1664 499.437 99.0149 500.235 99.0149 501.182C99.0149 502.129 99.1664 502.928 99.4695 503.58C99.7763 504.227 100.193 504.72 100.719 505.057C101.246 505.39 101.844 505.557 102.515 505.557C103.182 505.557 103.778 505.39 104.305 505.057C104.835 504.72 105.252 504.227 105.555 503.58C105.862 502.928 106.015 502.129 106.015 501.182ZM116.346 500.403L114.806 500.676C114.742 500.479 114.639 500.292 114.499 500.114C114.363 499.936 114.177 499.79 113.942 499.676C113.708 499.562 113.414 499.506 113.062 499.506C112.581 499.506 112.179 499.614 111.857 499.83C111.535 500.042 111.374 500.316 111.374 500.653C111.374 500.945 111.482 501.18 111.698 501.358C111.914 501.536 112.263 501.682 112.744 501.795L114.13 502.114C114.933 502.299 115.531 502.585 115.925 502.972C116.319 503.358 116.516 503.86 116.516 504.477C116.516 505 116.365 505.466 116.062 505.875C115.763 506.28 115.344 506.598 114.806 506.83C114.272 507.061 113.653 507.176 112.948 507.176C111.971 507.176 111.174 506.968 110.556 506.551C109.939 506.131 109.56 505.534 109.42 504.761L111.062 504.511C111.164 504.939 111.374 505.263 111.692 505.483C112.011 505.699 112.425 505.807 112.937 505.807C113.494 505.807 113.939 505.691 114.272 505.46C114.605 505.225 114.772 504.939 114.772 504.602C114.772 504.33 114.67 504.1 114.465 503.915C114.264 503.729 113.956 503.589 113.539 503.494L112.062 503.17C111.247 502.985 110.645 502.689 110.255 502.284C109.869 501.879 109.675 501.366 109.675 500.744C109.675 500.229 109.819 499.778 110.107 499.392C110.395 499.006 110.793 498.705 111.3 498.489C111.808 498.269 112.389 498.159 113.045 498.159C113.988 498.159 114.73 498.364 115.272 498.773C115.814 499.178 116.172 499.722 116.346 500.403ZM122.619 507V498.273H124.317V507H122.619ZM122.778 497.108L124.107 494.489H125.897L124.136 497.108H122.778ZM130.279 507.176C129.434 507.176 128.707 506.985 128.097 506.602C127.491 506.216 127.025 505.684 126.7 505.006C126.374 504.328 126.211 503.551 126.211 502.676C126.211 501.79 126.378 501.008 126.711 500.33C127.044 499.648 127.514 499.116 128.12 498.733C128.726 498.35 129.44 498.159 130.262 498.159C130.925 498.159 131.516 498.282 132.035 498.528C132.554 498.771 132.972 499.112 133.29 499.551C133.612 499.991 133.804 500.504 133.864 501.091H132.211C132.12 500.682 131.912 500.33 131.586 500.034C131.264 499.739 130.832 499.591 130.29 499.591C129.817 499.591 129.402 499.716 129.046 499.966C128.694 500.212 128.419 500.564 128.222 501.023C128.025 501.477 127.927 502.015 127.927 502.636C127.927 503.273 128.023 503.822 128.217 504.284C128.41 504.746 128.683 505.104 129.035 505.358C129.391 505.612 129.809 505.739 130.29 505.739C130.612 505.739 130.904 505.68 131.165 505.562C131.431 505.441 131.652 505.269 131.83 505.045C132.012 504.822 132.139 504.553 132.211 504.239H133.864C133.804 504.803 133.62 505.307 133.313 505.75C133.006 506.193 132.595 506.542 132.08 506.795C131.569 507.049 130.969 507.176 130.279 507.176ZM139.357 507.176C138.539 507.176 137.825 506.989 137.215 506.614C136.605 506.239 136.132 505.714 135.795 505.04C135.458 504.366 135.289 503.578 135.289 502.676C135.289 501.771 135.458 500.979 135.795 500.301C136.132 499.623 136.605 499.097 137.215 498.722C137.825 498.347 138.539 498.159 139.357 498.159C140.175 498.159 140.889 498.347 141.499 498.722C142.109 499.097 142.583 499.623 142.92 500.301C143.257 500.979 143.425 501.771 143.425 502.676C143.425 503.578 143.257 504.366 142.92 505.04C142.583 505.714 142.109 506.239 141.499 506.614C140.889 506.989 140.175 507.176 139.357 507.176ZM139.363 505.75C139.893 505.75 140.333 505.61 140.681 505.33C141.03 505.049 141.287 504.676 141.454 504.21C141.624 503.744 141.71 503.231 141.71 502.67C141.71 502.114 141.624 501.602 141.454 501.136C141.287 500.667 141.03 500.29 140.681 500.006C140.333 499.722 139.893 499.58 139.363 499.58C138.829 499.58 138.386 499.722 138.033 500.006C137.685 500.29 137.425 500.667 137.255 501.136C137.088 501.602 137.005 502.114 137.005 502.67C137.005 503.231 137.088 503.744 137.255 504.21C137.425 504.676 137.685 505.049 138.033 505.33C138.386 505.61 138.829 505.75 139.363 505.75ZM147.021 501.818V507H145.322V498.273H146.952V499.693H147.06C147.261 499.231 147.576 498.86 148.004 498.58C148.435 498.299 148.979 498.159 149.634 498.159C150.229 498.159 150.75 498.284 151.197 498.534C151.644 498.78 151.99 499.148 152.237 499.636C152.483 500.125 152.606 500.729 152.606 501.449V507H150.907V501.653C150.907 501.021 150.742 500.527 150.413 500.17C150.083 499.811 149.63 499.631 149.055 499.631C148.661 499.631 148.31 499.716 148.004 499.886C147.701 500.057 147.46 500.307 147.282 500.636C147.108 500.962 147.021 501.356 147.021 501.818ZM158.646 507.176C157.786 507.176 157.045 506.992 156.424 506.625C155.807 506.254 155.329 505.733 154.992 505.062C154.659 504.388 154.492 503.598 154.492 502.693C154.492 501.799 154.659 501.011 154.992 500.33C155.329 499.648 155.799 499.116 156.401 498.733C157.007 498.35 157.716 498.159 158.526 498.159C159.019 498.159 159.496 498.241 159.958 498.403C160.42 498.566 160.835 498.822 161.202 499.17C161.57 499.519 161.86 499.972 162.072 500.528C162.284 501.081 162.39 501.754 162.39 502.545V503.148H155.452V501.875H160.725C160.725 501.428 160.634 501.032 160.452 500.688C160.271 500.339 160.015 500.064 159.685 499.864C159.36 499.663 158.977 499.562 158.538 499.562C158.06 499.562 157.644 499.68 157.288 499.915C156.935 500.146 156.663 500.449 156.469 500.824C156.28 501.195 156.185 501.598 156.185 502.034V503.028C156.185 503.612 156.288 504.108 156.492 504.517C156.701 504.926 156.99 505.239 157.362 505.455C157.733 505.667 158.166 505.773 158.663 505.773C158.985 505.773 159.278 505.727 159.543 505.636C159.808 505.542 160.038 505.402 160.231 505.216C160.424 505.03 160.572 504.801 160.674 504.528L162.282 504.818C162.153 505.292 161.922 505.706 161.589 506.062C161.259 506.415 160.844 506.689 160.344 506.886C159.848 507.08 159.282 507.176 158.646 507.176ZM170.815 500.403L169.275 500.676C169.21 500.479 169.108 500.292 168.968 500.114C168.832 499.936 168.646 499.79 168.411 499.676C168.176 499.562 167.883 499.506 167.531 499.506C167.049 499.506 166.648 499.614 166.326 499.83C166.004 500.042 165.843 500.316 165.843 500.653C165.843 500.945 165.951 501.18 166.167 501.358C166.383 501.536 166.731 501.682 167.212 501.795L168.599 502.114C169.402 502.299 170 502.585 170.394 502.972C170.788 503.358 170.985 503.86 170.985 504.477C170.985 505 170.834 505.466 170.531 505.875C170.231 506.28 169.813 506.598 169.275 506.83C168.741 507.061 168.121 507.176 167.417 507.176C166.44 507.176 165.642 506.968 165.025 506.551C164.407 506.131 164.029 505.534 163.888 504.761L165.531 504.511C165.633 504.939 165.843 505.263 166.161 505.483C166.479 505.699 166.894 505.807 167.406 505.807C167.962 505.807 168.407 505.691 168.741 505.46C169.074 505.225 169.241 504.939 169.241 504.602C169.241 504.33 169.138 504.1 168.934 503.915C168.733 503.729 168.424 503.589 168.008 503.494L166.531 503.17C165.716 502.985 165.114 502.689 164.724 502.284C164.337 501.879 164.144 501.366 164.144 500.744C164.144 500.229 164.288 499.778 164.576 499.392C164.864 499.006 165.262 498.705 165.769 498.489C166.277 498.269 166.858 498.159 167.513 498.159C168.457 498.159 169.199 498.364 169.741 498.773C170.282 499.178 170.64 499.722 170.815 500.403ZM177.087 510.273V498.273H178.746V499.688H178.888C178.987 499.506 179.129 499.295 179.315 499.057C179.5 498.818 179.758 498.61 180.087 498.432C180.417 498.25 180.853 498.159 181.394 498.159C182.099 498.159 182.728 498.337 183.281 498.693C183.834 499.049 184.267 499.562 184.582 500.233C184.9 500.903 185.059 501.71 185.059 502.653C185.059 503.597 184.902 504.405 184.587 505.08C184.273 505.75 183.841 506.267 183.292 506.631C182.743 506.991 182.116 507.17 181.411 507.17C180.881 507.17 180.447 507.081 180.11 506.903C179.777 506.725 179.515 506.517 179.326 506.278C179.137 506.04 178.991 505.828 178.888 505.642H178.786V510.273H177.087ZM178.752 502.636C178.752 503.25 178.841 503.788 179.019 504.25C179.197 504.712 179.455 505.074 179.792 505.335C180.129 505.593 180.542 505.722 181.031 505.722C181.538 505.722 181.962 505.587 182.303 505.318C182.644 505.045 182.902 504.676 183.076 504.21C183.254 503.744 183.343 503.22 183.343 502.636C183.343 502.061 183.256 501.544 183.082 501.085C182.911 500.627 182.654 500.265 182.309 500C181.968 499.735 181.542 499.602 181.031 499.602C180.538 499.602 180.121 499.729 179.781 499.983C179.443 500.237 179.188 500.591 179.013 501.045C178.839 501.5 178.752 502.03 178.752 502.636ZM190.638 507.176C189.82 507.176 189.106 506.989 188.496 506.614C187.887 506.239 187.413 505.714 187.076 505.04C186.739 504.366 186.57 503.578 186.57 502.676C186.57 501.771 186.739 500.979 187.076 500.301C187.413 499.623 187.887 499.097 188.496 498.722C189.106 498.347 189.82 498.159 190.638 498.159C191.457 498.159 192.171 498.347 192.781 498.722C193.39 499.097 193.864 499.623 194.201 500.301C194.538 500.979 194.707 501.771 194.707 502.676C194.707 503.578 194.538 504.366 194.201 505.04C193.864 505.714 193.39 506.239 192.781 506.614C192.171 506.989 191.457 507.176 190.638 507.176ZM190.644 505.75C191.174 505.75 191.614 505.61 191.962 505.33C192.311 505.049 192.568 504.676 192.735 504.21C192.906 503.744 192.991 503.231 192.991 502.67C192.991 502.114 192.906 501.602 192.735 501.136C192.568 500.667 192.311 500.29 191.962 500.006C191.614 499.722 191.174 499.58 190.644 499.58C190.11 499.58 189.667 499.722 189.315 500.006C188.966 500.29 188.707 500.667 188.536 501.136C188.37 501.602 188.286 502.114 188.286 502.67C188.286 503.231 188.37 503.744 188.536 504.21C188.707 504.676 188.966 505.049 189.315 505.33C189.667 505.61 190.11 505.75 190.644 505.75ZM199.87 507.17C199.165 507.17 198.537 506.991 197.984 506.631C197.434 506.267 197.003 505.75 196.688 505.08C196.378 504.405 196.222 503.597 196.222 502.653C196.222 501.71 196.379 500.903 196.694 500.233C197.012 499.562 197.448 499.049 198.001 498.693C198.554 498.337 199.181 498.159 199.881 498.159C200.423 498.159 200.859 498.25 201.188 498.432C201.522 498.61 201.779 498.818 201.961 499.057C202.147 499.295 202.29 499.506 202.393 499.688H202.495V495.364H204.194V507H202.535V505.642H202.393C202.29 505.828 202.143 506.04 201.95 506.278C201.76 506.517 201.499 506.725 201.165 506.903C200.832 507.081 200.4 507.17 199.87 507.17ZM200.245 505.722C200.734 505.722 201.147 505.593 201.484 505.335C201.825 505.074 202.082 504.712 202.256 504.25C202.434 503.788 202.523 503.25 202.523 502.636C202.523 502.03 202.436 501.5 202.262 501.045C202.088 500.591 201.832 500.237 201.495 499.983C201.158 499.729 200.741 499.602 200.245 499.602C199.734 499.602 199.308 499.735 198.967 500C198.626 500.265 198.368 500.627 198.194 501.085C198.023 501.544 197.938 502.061 197.938 502.636C197.938 503.22 198.025 503.744 198.2 504.21C198.374 504.676 198.631 505.045 198.972 505.318C199.317 505.587 199.741 505.722 200.245 505.722ZM210.38 507.176C209.52 507.176 208.78 506.992 208.158 506.625C207.541 506.254 207.064 505.733 206.727 505.062C206.393 504.388 206.227 503.598 206.227 502.693C206.227 501.799 206.393 501.011 206.727 500.33C207.064 499.648 207.533 499.116 208.136 498.733C208.742 498.35 209.45 498.159 210.261 498.159C210.753 498.159 211.23 498.241 211.692 498.403C212.155 498.566 212.569 498.822 212.937 499.17C213.304 499.519 213.594 499.972 213.806 500.528C214.018 501.081 214.124 501.754 214.124 502.545V503.148H207.187V501.875H212.46C212.46 501.428 212.369 501.032 212.187 500.688C212.005 500.339 211.749 500.064 211.42 499.864C211.094 499.663 210.711 499.562 210.272 499.562C209.795 499.562 209.378 499.68 209.022 499.915C208.67 500.146 208.397 500.449 208.204 500.824C208.014 501.195 207.92 501.598 207.92 502.034V503.028C207.92 503.612 208.022 504.108 208.227 504.517C208.435 504.926 208.725 505.239 209.096 505.455C209.467 505.667 209.901 505.773 210.397 505.773C210.719 505.773 211.013 505.727 211.278 505.636C211.543 505.542 211.772 505.402 211.965 505.216C212.158 505.03 212.306 504.801 212.408 504.528L214.016 504.818C213.888 505.292 213.656 505.706 213.323 506.062C212.994 506.415 212.579 506.689 212.079 506.886C211.583 507.08 211.016 507.176 210.38 507.176ZM216.009 507V498.273H217.64V499.693H217.748C217.93 499.212 218.227 498.837 218.64 498.568C219.053 498.295 219.547 498.159 220.123 498.159C220.706 498.159 221.195 498.295 221.589 498.568C221.987 498.841 222.28 499.216 222.469 499.693H222.56C222.769 499.227 223.1 498.856 223.555 498.58C224.009 498.299 224.551 498.159 225.18 498.159C225.971 498.159 226.617 498.407 227.117 498.903C227.621 499.4 227.873 500.148 227.873 501.148V507H226.174V501.307C226.174 500.716 226.013 500.288 225.691 500.023C225.369 499.758 224.985 499.625 224.538 499.625C223.985 499.625 223.555 499.795 223.248 500.136C222.941 500.473 222.788 500.907 222.788 501.438V507H221.094V501.199C221.094 500.725 220.947 500.345 220.651 500.057C220.356 499.769 219.971 499.625 219.498 499.625C219.176 499.625 218.879 499.71 218.606 499.881C218.337 500.047 218.119 500.28 217.952 500.58C217.79 500.879 217.708 501.225 217.708 501.619V507H216.009ZM240.924 500.403L239.384 500.676C239.32 500.479 239.218 500.292 239.077 500.114C238.941 499.936 238.755 499.79 238.521 499.676C238.286 499.562 237.992 499.506 237.64 499.506C237.159 499.506 236.757 499.614 236.435 499.83C236.113 500.042 235.952 500.316 235.952 500.653C235.952 500.945 236.06 501.18 236.276 501.358C236.492 501.536 236.841 501.682 237.322 501.795L238.708 502.114C239.511 502.299 240.11 502.585 240.504 502.972C240.897 503.358 241.094 503.86 241.094 504.477C241.094 505 240.943 505.466 240.64 505.875C240.341 506.28 239.922 506.598 239.384 506.83C238.85 507.061 238.231 507.176 237.526 507.176C236.549 507.176 235.752 506.968 235.134 506.551C234.517 506.131 234.138 505.534 233.998 504.761L235.64 504.511C235.742 504.939 235.952 505.263 236.271 505.483C236.589 505.699 237.004 505.807 237.515 505.807C238.072 505.807 238.517 505.691 238.85 505.46C239.183 505.225 239.35 504.939 239.35 504.602C239.35 504.33 239.248 504.1 239.043 503.915C238.843 503.729 238.534 503.589 238.117 503.494L236.64 503.17C235.826 502.985 235.223 502.689 234.833 502.284C234.447 501.879 234.254 501.366 234.254 500.744C234.254 500.229 234.397 499.778 234.685 499.392C234.973 499.006 235.371 498.705 235.879 498.489C236.386 498.269 236.968 498.159 237.623 498.159C238.566 498.159 239.308 498.364 239.85 498.773C240.392 499.178 240.75 499.722 240.924 500.403ZM246.724 507.176C245.864 507.176 245.123 506.992 244.502 506.625C243.885 506.254 243.407 505.733 243.07 505.062C242.737 504.388 242.57 503.598 242.57 502.693C242.57 501.799 242.737 501.011 243.07 500.33C243.407 499.648 243.877 499.116 244.479 498.733C245.085 498.35 245.794 498.159 246.604 498.159C247.097 498.159 247.574 498.241 248.036 498.403C248.498 498.566 248.913 498.822 249.281 499.17C249.648 499.519 249.938 499.972 250.15 500.528C250.362 501.081 250.468 501.754 250.468 502.545V503.148H243.531V501.875H248.803C248.803 501.428 248.712 501.032 248.531 500.688C248.349 500.339 248.093 500.064 247.763 499.864C247.438 499.663 247.055 499.562 246.616 499.562C246.138 499.562 245.722 499.68 245.366 499.915C245.013 500.146 244.741 500.449 244.548 500.824C244.358 501.195 244.263 501.598 244.263 502.034V503.028C244.263 503.612 244.366 504.108 244.57 504.517C244.779 504.926 245.068 505.239 245.44 505.455C245.811 505.667 246.245 505.773 246.741 505.773C247.063 505.773 247.356 505.727 247.621 505.636C247.887 505.542 248.116 505.402 248.309 505.216C248.502 505.03 248.65 504.801 248.752 504.528L250.36 504.818C250.231 505.292 250 505.706 249.667 506.062C249.337 506.415 248.923 506.689 248.423 506.886C247.926 507.08 247.36 507.176 246.724 507.176ZM252.353 507V498.273H253.995V499.659H254.086C254.245 499.189 254.525 498.82 254.927 498.551C255.332 498.278 255.79 498.142 256.302 498.142C256.408 498.142 256.533 498.146 256.677 498.153C256.825 498.161 256.94 498.17 257.023 498.182V499.807C256.955 499.788 256.834 499.767 256.66 499.744C256.486 499.718 256.311 499.705 256.137 499.705C255.736 499.705 255.378 499.79 255.063 499.96C254.753 500.127 254.506 500.36 254.325 500.659C254.143 500.955 254.052 501.292 254.052 501.67V507H252.353ZM265.268 507.193C264.715 507.193 264.215 507.091 263.768 506.886C263.321 506.678 262.967 506.377 262.705 505.983C262.448 505.589 262.319 505.106 262.319 504.534C262.319 504.042 262.414 503.636 262.603 503.318C262.792 503 263.048 502.748 263.37 502.562C263.692 502.377 264.052 502.237 264.45 502.142C264.847 502.047 265.253 501.975 265.665 501.926C266.188 501.866 266.612 501.816 266.938 501.778C267.264 501.737 267.501 501.67 267.648 501.58C267.796 501.489 267.87 501.341 267.87 501.136V501.097C267.87 500.6 267.73 500.216 267.45 499.943C267.173 499.67 266.76 499.534 266.211 499.534C265.639 499.534 265.188 499.661 264.859 499.915C264.533 500.165 264.308 500.443 264.183 500.75L262.586 500.386C262.775 499.856 263.052 499.428 263.415 499.102C263.783 498.773 264.205 498.534 264.683 498.386C265.16 498.235 265.662 498.159 266.188 498.159C266.537 498.159 266.906 498.201 267.296 498.284C267.69 498.364 268.058 498.511 268.398 498.727C268.743 498.943 269.025 499.252 269.245 499.653C269.465 500.051 269.575 500.568 269.575 501.205V507H267.915V505.807H267.847C267.737 506.027 267.573 506.242 267.353 506.455C267.133 506.667 266.851 506.843 266.506 506.983C266.162 507.123 265.749 507.193 265.268 507.193ZM265.637 505.83C266.107 505.83 266.508 505.737 266.842 505.551C267.179 505.366 267.434 505.123 267.609 504.824C267.787 504.521 267.876 504.197 267.876 503.852V502.727C267.815 502.788 267.698 502.845 267.523 502.898C267.353 502.947 267.158 502.991 266.938 503.028C266.719 503.062 266.504 503.095 266.296 503.125C266.088 503.152 265.914 503.174 265.773 503.193C265.444 503.235 265.143 503.305 264.87 503.403C264.601 503.502 264.385 503.644 264.222 503.83C264.063 504.011 263.984 504.254 263.984 504.557C263.984 504.977 264.139 505.295 264.45 505.511C264.76 505.723 265.156 505.83 265.637 505.83ZM275.513 507.176C274.669 507.176 273.942 506.985 273.332 506.602C272.726 506.216 272.26 505.684 271.934 505.006C271.608 504.328 271.445 503.551 271.445 502.676C271.445 501.79 271.612 501.008 271.945 500.33C272.279 499.648 272.748 499.116 273.354 498.733C273.96 498.35 274.674 498.159 275.496 498.159C276.159 498.159 276.75 498.282 277.269 498.528C277.788 498.771 278.207 499.112 278.525 499.551C278.847 499.991 279.038 500.504 279.099 501.091H277.445C277.354 500.682 277.146 500.33 276.82 500.034C276.498 499.739 276.067 499.591 275.525 499.591C275.051 499.591 274.637 499.716 274.281 499.966C273.928 500.212 273.654 500.564 273.457 501.023C273.26 501.477 273.161 502.015 273.161 502.636C273.161 503.273 273.258 503.822 273.451 504.284C273.644 504.746 273.917 505.104 274.269 505.358C274.625 505.612 275.044 505.739 275.525 505.739C275.847 505.739 276.138 505.68 276.4 505.562C276.665 505.441 276.887 505.269 277.065 505.045C277.246 504.822 277.373 504.553 277.445 504.239H279.099C279.038 504.803 278.854 505.307 278.548 505.75C278.241 506.193 277.83 506.542 277.315 506.795C276.803 507.049 276.203 507.176 275.513 507.176ZM284.677 507.176C283.817 507.176 283.076 506.992 282.455 506.625C281.838 506.254 281.361 505.733 281.023 505.062C280.69 504.388 280.523 503.598 280.523 502.693C280.523 501.799 280.69 501.011 281.023 500.33C281.361 499.648 281.83 499.116 282.433 498.733C283.039 498.35 283.747 498.159 284.558 498.159C285.05 498.159 285.527 498.241 285.989 498.403C286.451 498.566 286.866 498.822 287.234 499.17C287.601 499.519 287.891 499.972 288.103 500.528C288.315 501.081 288.421 501.754 288.421 502.545V503.148H281.484V501.875H286.756C286.756 501.428 286.665 501.032 286.484 500.688C286.302 500.339 286.046 500.064 285.717 499.864C285.391 499.663 285.008 499.562 284.569 499.562C284.092 499.562 283.675 499.68 283.319 499.915C282.967 500.146 282.694 500.449 282.501 500.824C282.311 501.195 282.217 501.598 282.217 502.034V503.028C282.217 503.612 282.319 504.108 282.523 504.517C282.732 504.926 283.022 505.239 283.393 505.455C283.764 505.667 284.198 505.773 284.694 505.773C285.016 505.773 285.309 505.727 285.575 505.636C285.84 505.542 286.069 505.402 286.262 505.216C286.455 505.03 286.603 504.801 286.705 504.528L288.313 504.818C288.184 505.292 287.953 505.706 287.62 506.062C287.29 506.415 286.876 506.689 286.376 506.886C285.879 507.08 285.313 507.176 284.677 507.176ZM296.846 500.403L295.306 500.676C295.242 500.479 295.139 500.292 294.999 500.114C294.863 499.936 294.677 499.79 294.442 499.676C294.208 499.562 293.914 499.506 293.562 499.506C293.081 499.506 292.679 499.614 292.357 499.83C292.035 500.042 291.874 500.316 291.874 500.653C291.874 500.945 291.982 501.18 292.198 501.358C292.414 501.536 292.763 501.682 293.244 501.795L294.63 502.114C295.433 502.299 296.031 502.585 296.425 502.972C296.819 503.358 297.016 503.86 297.016 504.477C297.016 505 296.865 505.466 296.562 505.875C296.263 506.28 295.844 506.598 295.306 506.83C294.772 507.061 294.153 507.176 293.448 507.176C292.471 507.176 291.674 506.968 291.056 506.551C290.439 506.131 290.06 505.534 289.92 504.761L291.562 504.511C291.664 504.939 291.874 505.263 292.192 505.483C292.511 505.699 292.925 505.807 293.437 505.807C293.994 505.807 294.439 505.691 294.772 505.46C295.105 505.225 295.272 504.939 295.272 504.602C295.272 504.33 295.17 504.1 294.965 503.915C294.764 503.729 294.456 503.589 294.039 503.494L292.562 503.17C291.747 502.985 291.145 502.689 290.755 502.284C290.369 501.879 290.175 501.366 290.175 500.744C290.175 500.229 290.319 499.778 290.607 499.392C290.895 499.006 291.293 498.705 291.8 498.489C292.308 498.269 292.889 498.159 293.545 498.159C294.488 498.159 295.23 498.364 295.772 498.773C296.314 499.178 296.672 499.722 296.846 500.403ZM305.424 500.403L303.884 500.676C303.82 500.479 303.718 500.292 303.577 500.114C303.441 499.936 303.255 499.79 303.021 499.676C302.786 499.562 302.492 499.506 302.14 499.506C301.659 499.506 301.257 499.614 300.935 499.83C300.613 500.042 300.452 500.316 300.452 500.653C300.452 500.945 300.56 501.18 300.776 501.358C300.992 501.536 301.341 501.682 301.822 501.795L303.208 502.114C304.011 502.299 304.61 502.585 305.004 502.972C305.397 503.358 305.594 503.86 305.594 504.477C305.594 505 305.443 505.466 305.14 505.875C304.841 506.28 304.422 506.598 303.884 506.83C303.35 507.061 302.731 507.176 302.026 507.176C301.049 507.176 300.252 506.968 299.634 506.551C299.017 506.131 298.638 505.534 298.498 504.761L300.14 504.511C300.242 504.939 300.452 505.263 300.771 505.483C301.089 505.699 301.504 505.807 302.015 505.807C302.572 505.807 303.017 505.691 303.35 505.46C303.683 505.225 303.85 504.939 303.85 504.602C303.85 504.33 303.748 504.1 303.543 503.915C303.343 503.729 303.034 503.589 302.617 503.494L301.14 503.17C300.326 502.985 299.723 502.689 299.333 502.284C298.947 501.879 298.754 501.366 298.754 500.744C298.754 500.229 298.897 499.778 299.185 499.392C299.473 499.006 299.871 498.705 300.379 498.489C300.886 498.269 301.468 498.159 302.123 498.159C303.066 498.159 303.808 498.364 304.35 498.773C304.892 499.178 305.25 499.722 305.424 500.403ZM310.002 507.193C309.449 507.193 308.949 507.091 308.502 506.886C308.055 506.678 307.701 506.377 307.44 505.983C307.182 505.589 307.053 505.106 307.053 504.534C307.053 504.042 307.148 503.636 307.337 503.318C307.527 503 307.782 502.748 308.104 502.562C308.426 502.377 308.786 502.237 309.184 502.142C309.582 502.047 309.987 501.975 310.4 501.926C310.923 501.866 311.347 501.816 311.673 501.778C311.998 501.737 312.235 501.67 312.383 501.58C312.531 501.489 312.604 501.341 312.604 501.136V501.097C312.604 500.6 312.464 500.216 312.184 499.943C311.907 499.67 311.495 499.534 310.945 499.534C310.373 499.534 309.923 499.661 309.593 499.915C309.267 500.165 309.042 500.443 308.917 500.75L307.32 500.386C307.51 499.856 307.786 499.428 308.15 499.102C308.517 498.773 308.94 498.534 309.417 498.386C309.894 498.235 310.396 498.159 310.923 498.159C311.271 498.159 311.64 498.201 312.031 498.284C312.424 498.364 312.792 498.511 313.133 498.727C313.478 498.943 313.76 499.252 313.979 499.653C314.199 500.051 314.309 500.568 314.309 501.205V507H312.65V505.807H312.582C312.472 506.027 312.307 506.242 312.087 506.455C311.868 506.667 311.585 506.843 311.241 506.983C310.896 507.123 310.483 507.193 310.002 507.193ZM310.371 505.83C310.841 505.83 311.243 505.737 311.576 505.551C311.913 505.366 312.169 505.123 312.343 504.824C312.521 504.521 312.61 504.197 312.61 503.852V502.727C312.549 502.788 312.432 502.845 312.258 502.898C312.087 502.947 311.892 502.991 311.673 503.028C311.453 503.062 311.239 503.095 311.031 503.125C310.822 503.152 310.648 503.174 310.508 503.193C310.178 503.235 309.877 503.305 309.604 503.403C309.335 503.502 309.12 503.644 308.957 503.83C308.798 504.011 308.718 504.254 308.718 504.557C308.718 504.977 308.873 505.295 309.184 505.511C309.495 505.723 309.89 505.83 310.371 505.83ZM319.839 507.17C319.134 507.17 318.505 506.991 317.952 506.631C317.403 506.267 316.971 505.75 316.657 505.08C316.346 504.405 316.191 503.597 316.191 502.653C316.191 501.71 316.348 500.903 316.663 500.233C316.981 499.562 317.416 499.049 317.969 498.693C318.522 498.337 319.149 498.159 319.85 498.159C320.392 498.159 320.827 498.25 321.157 498.432C321.49 498.61 321.748 498.818 321.93 499.057C322.115 499.295 322.259 499.506 322.362 499.688H322.464V495.364H324.163V507H322.504V505.642H322.362C322.259 505.828 322.112 506.04 321.918 506.278C321.729 506.517 321.468 506.725 321.134 506.903C320.801 507.081 320.369 507.17 319.839 507.17ZM320.214 505.722C320.702 505.722 321.115 505.593 321.452 505.335C321.793 505.074 322.051 504.712 322.225 504.25C322.403 503.788 322.492 503.25 322.492 502.636C322.492 502.03 322.405 501.5 322.231 501.045C322.057 500.591 321.801 500.237 321.464 499.983C321.127 499.729 320.71 499.602 320.214 499.602C319.702 499.602 319.276 499.735 318.935 500C318.594 500.265 318.337 500.627 318.163 501.085C317.992 501.544 317.907 502.061 317.907 502.636C317.907 503.22 317.994 503.744 318.168 504.21C318.343 504.676 318.6 505.045 318.941 505.318C319.286 505.587 319.71 505.722 320.214 505.722ZM330.263 507.176C329.445 507.176 328.731 506.989 328.121 506.614C327.512 506.239 327.038 505.714 326.701 505.04C326.364 504.366 326.195 503.578 326.195 502.676C326.195 501.771 326.364 500.979 326.701 500.301C327.038 499.623 327.512 499.097 328.121 498.722C328.731 498.347 329.445 498.159 330.263 498.159C331.082 498.159 331.796 498.347 332.406 498.722C333.015 499.097 333.489 499.623 333.826 500.301C334.163 500.979 334.332 501.771 334.332 502.676C334.332 503.578 334.163 504.366 333.826 505.04C333.489 505.714 333.015 506.239 332.406 506.614C331.796 506.989 331.082 507.176 330.263 507.176ZM330.269 505.75C330.799 505.75 331.239 505.61 331.587 505.33C331.936 505.049 332.193 504.676 332.36 504.21C332.531 503.744 332.616 503.231 332.616 502.67C332.616 502.114 332.531 501.602 332.36 501.136C332.193 500.667 331.936 500.29 331.587 500.006C331.239 499.722 330.799 499.58 330.269 499.58C329.735 499.58 329.292 499.722 328.94 500.006C328.591 500.29 328.332 500.667 328.161 501.136C327.995 501.602 327.911 502.114 327.911 502.67C327.911 503.231 327.995 503.744 328.161 504.21C328.332 504.676 328.591 505.049 328.94 505.33C329.292 505.61 329.735 505.75 330.269 505.75ZM342.768 500.403L341.228 500.676C341.164 500.479 341.061 500.292 340.921 500.114C340.785 499.936 340.599 499.79 340.364 499.676C340.129 499.562 339.836 499.506 339.484 499.506C339.003 499.506 338.601 499.614 338.279 499.83C337.957 500.042 337.796 500.316 337.796 500.653C337.796 500.945 337.904 501.18 338.12 501.358C338.336 501.536 338.684 501.682 339.165 501.795L340.552 502.114C341.355 502.299 341.953 502.585 342.347 502.972C342.741 503.358 342.938 503.86 342.938 504.477C342.938 505 342.787 505.466 342.484 505.875C342.184 506.28 341.766 506.598 341.228 506.83C340.694 507.061 340.075 507.176 339.37 507.176C338.393 507.176 337.595 506.968 336.978 506.551C336.361 506.131 335.982 505.534 335.842 504.761L337.484 504.511C337.586 504.939 337.796 505.263 338.114 505.483C338.433 505.699 338.847 505.807 339.359 505.807C339.915 505.807 340.361 505.691 340.694 505.46C341.027 505.225 341.194 504.939 341.194 504.602C341.194 504.33 341.092 504.1 340.887 503.915C340.686 503.729 340.378 503.589 339.961 503.494L338.484 503.17C337.669 502.985 337.067 502.689 336.677 502.284C336.29 501.879 336.097 501.366 336.097 500.744C336.097 500.229 336.241 499.778 336.529 499.392C336.817 499.006 337.215 498.705 337.722 498.489C338.23 498.269 338.811 498.159 339.467 498.159C340.41 498.159 341.152 498.364 341.694 498.773C342.236 499.178 342.594 499.722 342.768 500.403ZM352.802 507.176C351.942 507.176 351.201 506.992 350.58 506.625C349.963 506.254 349.486 505.733 349.148 505.062C348.815 504.388 348.648 503.598 348.648 502.693C348.648 501.799 348.815 501.011 349.148 500.33C349.486 499.648 349.955 499.116 350.558 498.733C351.164 498.35 351.872 498.159 352.683 498.159C353.175 498.159 353.652 498.241 354.114 498.403C354.576 498.566 354.991 498.822 355.359 499.17C355.726 499.519 356.016 499.972 356.228 500.528C356.44 501.081 356.546 501.754 356.546 502.545V503.148H349.609V501.875H354.881C354.881 501.428 354.79 501.032 354.609 500.688C354.427 500.339 354.171 500.064 353.842 499.864C353.516 499.663 353.133 499.562 352.694 499.562C352.217 499.562 351.8 499.68 351.444 499.915C351.092 500.146 350.819 500.449 350.626 500.824C350.436 501.195 350.342 501.598 350.342 502.034V503.028C350.342 503.612 350.444 504.108 350.648 504.517C350.857 504.926 351.147 505.239 351.518 505.455C351.889 505.667 352.323 505.773 352.819 505.773C353.141 505.773 353.434 505.727 353.7 505.636C353.965 505.542 354.194 505.402 354.387 505.216C354.58 505.03 354.728 504.801 354.83 504.528L356.438 504.818C356.309 505.292 356.078 505.706 355.745 506.062C355.415 506.415 355.001 506.689 354.501 506.886C354.004 507.08 353.438 507.176 352.802 507.176ZM358.431 507V498.273H360.062V499.693H360.17C360.352 499.212 360.649 498.837 361.062 498.568C361.475 498.295 361.969 498.159 362.545 498.159C363.128 498.159 363.617 498.295 364.011 498.568C364.408 498.841 364.702 499.216 364.891 499.693H364.982C365.191 499.227 365.522 498.856 365.977 498.58C366.431 498.299 366.973 498.159 367.602 498.159C368.393 498.159 369.039 498.407 369.539 498.903C370.043 499.4 370.295 500.148 370.295 501.148V507H368.596V501.307C368.596 500.716 368.435 500.288 368.113 500.023C367.791 499.758 367.406 499.625 366.96 499.625C366.406 499.625 365.977 499.795 365.67 500.136C365.363 500.473 365.21 500.907 365.21 501.438V507H363.516V501.199C363.516 500.725 363.369 500.345 363.073 500.057C362.778 499.769 362.393 499.625 361.92 499.625C361.598 499.625 361.3 499.71 361.028 499.881C360.759 500.047 360.541 500.28 360.374 500.58C360.211 500.879 360.13 501.225 360.13 501.619V507H358.431ZM376.675 507V495.364H381.266C382.149 495.364 382.901 495.532 383.522 495.869C384.143 496.203 384.617 496.667 384.942 497.261C385.272 497.852 385.437 498.534 385.437 499.307C385.437 500.08 385.27 500.761 384.937 501.352C384.603 501.943 384.121 502.403 383.488 502.733C382.859 503.062 382.098 503.227 381.204 503.227H378.278V501.256H380.806C381.28 501.256 381.67 501.174 381.977 501.011C382.287 500.845 382.518 500.616 382.67 500.324C382.825 500.028 382.903 499.689 382.903 499.307C382.903 498.92 382.825 498.583 382.67 498.295C382.518 498.004 382.287 497.778 381.977 497.619C381.666 497.456 381.272 497.375 380.795 497.375H379.136V507H376.675ZM389.41 501.955V507H386.989V495.364H389.342V499.812H389.444C389.641 499.297 389.959 498.894 390.398 498.602C390.838 498.307 391.389 498.159 392.052 498.159C392.658 498.159 393.186 498.292 393.637 498.557C394.092 498.818 394.444 499.195 394.694 499.688C394.948 500.176 395.073 500.761 395.069 501.443V507H392.648V501.875C392.652 501.337 392.516 500.919 392.239 500.619C391.967 500.32 391.584 500.17 391.092 500.17C390.762 500.17 390.47 500.241 390.217 500.381C389.967 500.521 389.77 500.725 389.626 500.994C389.486 501.259 389.414 501.58 389.41 501.955ZM400.917 507.17C400.034 507.17 399.271 506.983 398.627 506.608C397.987 506.229 397.493 505.703 397.144 505.028C396.796 504.35 396.621 503.564 396.621 502.67C396.621 501.769 396.796 500.981 397.144 500.307C397.493 499.629 397.987 499.102 398.627 498.727C399.271 498.348 400.034 498.159 400.917 498.159C401.799 498.159 402.561 498.348 403.201 498.727C403.845 499.102 404.341 499.629 404.69 500.307C405.038 500.981 405.212 501.769 405.212 502.67C405.212 503.564 405.038 504.35 404.69 505.028C404.341 505.703 403.845 506.229 403.201 506.608C402.561 506.983 401.799 507.17 400.917 507.17ZM400.928 505.295C401.33 505.295 401.665 505.182 401.934 504.955C402.203 504.723 402.406 504.409 402.542 504.011C402.682 503.614 402.752 503.161 402.752 502.653C402.752 502.146 402.682 501.693 402.542 501.295C402.406 500.898 402.203 500.583 401.934 500.352C401.665 500.121 401.33 500.006 400.928 500.006C400.523 500.006 400.182 500.121 399.906 500.352C399.633 500.583 399.426 500.898 399.286 501.295C399.15 501.693 399.082 502.146 399.082 502.653C399.082 503.161 399.15 503.614 399.286 504.011C399.426 504.409 399.633 504.723 399.906 504.955C400.182 505.182 400.523 505.295 400.928 505.295ZM414.048 500.761L411.832 500.898C411.794 500.708 411.712 500.538 411.587 500.386C411.462 500.231 411.298 500.108 411.093 500.017C410.892 499.922 410.652 499.875 410.371 499.875C409.996 499.875 409.68 499.955 409.423 500.114C409.165 500.269 409.036 500.477 409.036 500.739C409.036 500.947 409.12 501.123 409.286 501.267C409.453 501.411 409.739 501.527 410.144 501.614L411.724 501.932C412.572 502.106 413.205 502.386 413.621 502.773C414.038 503.159 414.246 503.667 414.246 504.295C414.246 504.867 414.078 505.369 413.741 505.801C413.407 506.233 412.949 506.57 412.366 506.812C411.786 507.051 411.118 507.17 410.36 507.17C409.205 507.17 408.284 506.93 407.599 506.449C406.917 505.964 406.517 505.305 406.4 504.472L408.781 504.347C408.853 504.699 409.027 504.968 409.303 505.153C409.58 505.335 409.934 505.426 410.366 505.426C410.79 505.426 411.131 505.345 411.388 505.182C411.65 505.015 411.782 504.801 411.786 504.54C411.782 504.32 411.69 504.14 411.508 504C411.326 503.856 411.046 503.746 410.667 503.67L409.156 503.369C408.303 503.199 407.669 502.903 407.252 502.483C406.839 502.062 406.633 501.527 406.633 500.875C406.633 500.314 406.784 499.831 407.087 499.426C407.394 499.021 407.824 498.708 408.377 498.489C408.934 498.269 409.585 498.159 410.332 498.159C411.434 498.159 412.301 498.392 412.934 498.858C413.57 499.324 413.942 499.958 414.048 500.761ZM415.771 510.273V498.273H418.157V499.739H418.265C418.371 499.504 418.524 499.265 418.725 499.023C418.93 498.777 419.195 498.572 419.521 498.409C419.85 498.242 420.259 498.159 420.748 498.159C421.384 498.159 421.971 498.326 422.509 498.659C423.047 498.989 423.477 499.487 423.799 500.153C424.121 500.816 424.282 501.648 424.282 502.648C424.282 503.621 424.125 504.443 423.81 505.114C423.5 505.78 423.076 506.286 422.538 506.631C422.004 506.972 421.405 507.142 420.742 507.142C420.272 507.142 419.873 507.064 419.543 506.909C419.218 506.754 418.951 506.559 418.742 506.324C418.534 506.085 418.375 505.845 418.265 505.602H418.191V510.273H415.771ZM418.14 502.636C418.14 503.155 418.212 503.608 418.356 503.994C418.5 504.381 418.708 504.682 418.981 504.898C419.254 505.11 419.585 505.216 419.975 505.216C420.369 505.216 420.702 505.108 420.975 504.892C421.248 504.672 421.454 504.369 421.594 503.983C421.738 503.593 421.81 503.144 421.81 502.636C421.81 502.133 421.74 501.689 421.6 501.307C421.46 500.924 421.254 500.625 420.981 500.409C420.708 500.193 420.373 500.085 419.975 500.085C419.581 500.085 419.248 500.189 418.975 500.398C418.706 500.606 418.5 500.902 418.356 501.284C418.212 501.667 418.14 502.117 418.14 502.636ZM428.316 501.955V507H425.896V495.364H428.248V499.812H428.35C428.547 499.297 428.865 498.894 429.305 498.602C429.744 498.307 430.295 498.159 430.958 498.159C431.564 498.159 432.093 498.292 432.543 498.557C432.998 498.818 433.35 499.195 433.6 499.688C433.854 500.176 433.979 500.761 433.975 501.443V507H431.555V501.875C431.558 501.337 431.422 500.919 431.146 500.619C430.873 500.32 430.49 500.17 429.998 500.17C429.668 500.17 429.377 500.241 429.123 500.381C428.873 500.521 428.676 500.725 428.532 500.994C428.392 501.259 428.32 501.58 428.316 501.955ZM439.823 507.17C438.941 507.17 438.177 506.983 437.533 506.608C436.893 506.229 436.399 505.703 436.05 505.028C435.702 504.35 435.528 503.564 435.528 502.67C435.528 501.769 435.702 500.981 436.05 500.307C436.399 499.629 436.893 499.102 437.533 498.727C438.177 498.348 438.941 498.159 439.823 498.159C440.706 498.159 441.467 498.348 442.107 498.727C442.751 499.102 443.247 499.629 443.596 500.307C443.944 500.981 444.119 501.769 444.119 502.67C444.119 503.564 443.944 504.35 443.596 505.028C443.247 505.703 442.751 506.229 442.107 506.608C441.467 506.983 440.706 507.17 439.823 507.17ZM439.835 505.295C440.236 505.295 440.571 505.182 440.84 504.955C441.109 504.723 441.312 504.409 441.448 504.011C441.588 503.614 441.658 503.161 441.658 502.653C441.658 502.146 441.588 501.693 441.448 501.295C441.312 500.898 441.109 500.583 440.84 500.352C440.571 500.121 440.236 500.006 439.835 500.006C439.429 500.006 439.088 500.121 438.812 500.352C438.539 500.583 438.333 500.898 438.192 501.295C438.056 501.693 437.988 502.146 437.988 502.653C437.988 503.161 438.056 503.614 438.192 504.011C438.333 504.409 438.539 504.723 438.812 504.955C439.088 505.182 439.429 505.295 439.835 505.295ZM445.692 507V498.273H448.039V499.795H448.13C448.289 499.254 448.556 498.845 448.931 498.568C449.306 498.288 449.738 498.148 450.227 498.148C450.348 498.148 450.478 498.155 450.619 498.17C450.759 498.186 450.882 498.206 450.988 498.233V500.381C450.874 500.347 450.717 500.316 450.516 500.29C450.316 500.263 450.132 500.25 449.965 500.25C449.609 500.25 449.291 500.328 449.011 500.483C448.734 500.634 448.514 500.847 448.352 501.119C448.192 501.392 448.113 501.706 448.113 502.062V507H445.692ZM454.626 505.409L454.54 506.028C454.484 506.483 454.387 506.956 454.251 507.449C454.118 507.945 453.98 508.405 453.836 508.83C453.696 509.254 453.58 509.591 453.489 509.841H452.285C452.334 509.606 452.402 509.288 452.489 508.886C452.576 508.489 452.662 508.044 452.745 507.551C452.828 507.059 452.891 506.557 452.933 506.045L452.989 505.409H454.626ZM467.636 495.364V507H465.175V495.364H467.636ZM473.558 507.17C472.675 507.17 471.912 506.983 471.268 506.608C470.628 506.229 470.133 505.703 469.785 505.028C469.436 504.35 469.262 503.564 469.262 502.67C469.262 501.769 469.436 500.981 469.785 500.307C470.133 499.629 470.628 499.102 471.268 498.727C471.912 498.348 472.675 498.159 473.558 498.159C474.44 498.159 475.201 498.348 475.842 498.727C476.486 499.102 476.982 499.629 477.33 500.307C477.679 500.981 477.853 501.769 477.853 502.67C477.853 503.564 477.679 504.35 477.33 505.028C476.982 505.703 476.486 506.229 475.842 506.608C475.201 506.983 474.44 507.17 473.558 507.17ZM473.569 505.295C473.97 505.295 474.306 505.182 474.575 504.955C474.844 504.723 475.046 504.409 475.183 504.011C475.323 503.614 475.393 503.161 475.393 502.653C475.393 502.146 475.323 501.693 475.183 501.295C475.046 500.898 474.844 500.583 474.575 500.352C474.306 500.121 473.97 500.006 473.569 500.006C473.164 500.006 472.823 500.121 472.546 500.352C472.273 500.583 472.067 500.898 471.927 501.295C471.79 501.693 471.722 502.146 471.722 502.653C471.722 503.161 471.79 503.614 471.927 504.011C472.067 504.409 472.273 504.723 472.546 504.955C472.823 505.182 473.164 505.295 473.569 505.295ZM481.847 501.955V507H479.427V498.273H481.734V499.812H481.836C482.029 499.305 482.353 498.903 482.808 498.608C483.262 498.309 483.813 498.159 484.461 498.159C485.067 498.159 485.595 498.292 486.046 498.557C486.497 498.822 486.847 499.201 487.097 499.693C487.347 500.182 487.472 500.765 487.472 501.443V507H485.052V501.875C485.056 501.341 484.919 500.924 484.643 500.625C484.366 500.322 483.986 500.17 483.501 500.17C483.175 500.17 482.887 500.241 482.637 500.381C482.391 500.521 482.198 500.725 482.058 500.994C481.921 501.259 481.851 501.58 481.847 501.955ZM489.38 507V498.273H491.8V507H489.38ZM490.596 497.148C490.236 497.148 489.927 497.028 489.67 496.79C489.416 496.547 489.289 496.258 489.289 495.92C489.289 495.587 489.416 495.301 489.67 495.062C489.927 494.82 490.236 494.699 490.596 494.699C490.956 494.699 491.263 494.82 491.516 495.062C491.774 495.301 491.903 495.587 491.903 495.92C491.903 496.258 491.774 496.547 491.516 496.79C491.263 497.028 490.956 497.148 490.596 497.148ZM497.683 507.17C496.789 507.17 496.02 506.981 495.376 506.602C494.736 506.22 494.243 505.689 493.898 505.011C493.558 504.333 493.387 503.553 493.387 502.67C493.387 501.777 493.559 500.992 493.904 500.318C494.253 499.64 494.747 499.112 495.387 498.733C496.027 498.35 496.789 498.159 497.671 498.159C498.433 498.159 499.099 498.297 499.671 498.574C500.243 498.85 500.696 499.239 501.029 499.739C501.362 500.239 501.546 500.826 501.58 501.5H499.296C499.232 501.064 499.061 500.714 498.785 500.449C498.512 500.18 498.154 500.045 497.711 500.045C497.336 500.045 497.008 500.148 496.728 500.352C496.451 500.553 496.236 500.847 496.08 501.233C495.925 501.619 495.847 502.087 495.847 502.636C495.847 503.193 495.923 503.667 496.075 504.057C496.23 504.447 496.448 504.744 496.728 504.949C497.008 505.153 497.336 505.256 497.711 505.256C497.987 505.256 498.236 505.199 498.455 505.085C498.679 504.972 498.862 504.807 499.006 504.591C499.154 504.371 499.251 504.108 499.296 503.801H501.58C501.542 504.468 501.361 505.055 501.035 505.562C500.713 506.066 500.268 506.46 499.7 506.744C499.131 507.028 498.459 507.17 497.683 507.17ZM507.073 507.17C506.191 507.17 505.427 506.983 504.783 506.608C504.143 506.229 503.649 505.703 503.3 505.028C502.952 504.35 502.778 503.564 502.778 502.67C502.778 501.769 502.952 500.981 503.3 500.307C503.649 499.629 504.143 499.102 504.783 498.727C505.427 498.348 506.191 498.159 507.073 498.159C507.956 498.159 508.717 498.348 509.357 498.727C510.001 499.102 510.497 499.629 510.846 500.307C511.194 500.981 511.369 501.769 511.369 502.67C511.369 503.564 511.194 504.35 510.846 505.028C510.497 505.703 510.001 506.229 509.357 506.608C508.717 506.983 507.956 507.17 507.073 507.17ZM507.085 505.295C507.486 505.295 507.821 505.182 508.09 504.955C508.359 504.723 508.562 504.409 508.698 504.011C508.838 503.614 508.908 503.161 508.908 502.653C508.908 502.146 508.838 501.693 508.698 501.295C508.562 500.898 508.359 500.583 508.09 500.352C507.821 500.121 507.486 500.006 507.085 500.006C506.679 500.006 506.338 500.121 506.062 500.352C505.789 500.583 505.583 500.898 505.442 501.295C505.306 501.693 505.238 502.146 505.238 502.653C505.238 503.161 505.306 503.614 505.442 504.011C505.583 504.409 505.789 504.723 506.062 504.955C506.338 505.182 506.679 505.295 507.085 505.295ZM515.363 501.955V507H512.942V498.273H515.249V499.812H515.352C515.545 499.305 515.869 498.903 516.323 498.608C516.778 498.309 517.329 498.159 517.977 498.159C518.583 498.159 519.111 498.292 519.562 498.557C520.013 498.822 520.363 499.201 520.613 499.693C520.863 500.182 520.988 500.765 520.988 501.443V507H518.567V501.875C518.571 501.341 518.435 500.924 518.158 500.625C517.882 500.322 517.501 500.17 517.016 500.17C516.691 500.17 516.403 500.241 516.153 500.381C515.906 500.521 515.713 500.725 515.573 500.994C515.437 501.259 515.367 501.58 515.363 501.955ZM530.157 500.761L527.941 500.898C527.903 500.708 527.822 500.538 527.697 500.386C527.572 500.231 527.407 500.108 527.202 500.017C527.002 499.922 526.761 499.875 526.481 499.875C526.106 499.875 525.79 499.955 525.532 500.114C525.274 500.269 525.146 500.477 525.146 500.739C525.146 500.947 525.229 501.123 525.396 501.267C525.562 501.411 525.848 501.527 526.254 501.614L527.833 501.932C528.682 502.106 529.314 502.386 529.731 502.773C530.147 503.159 530.356 503.667 530.356 504.295C530.356 504.867 530.187 505.369 529.85 505.801C529.517 506.233 529.058 506.57 528.475 506.812C527.896 507.051 527.227 507.17 526.469 507.17C525.314 507.17 524.394 506.93 523.708 506.449C523.026 505.964 522.627 505.305 522.509 504.472L524.89 504.347C524.962 504.699 525.136 504.968 525.413 505.153C525.689 505.335 526.043 505.426 526.475 505.426C526.899 505.426 527.24 505.345 527.498 505.182C527.759 505.015 527.892 504.801 527.896 504.54C527.892 504.32 527.799 504.14 527.617 504C527.435 503.856 527.155 503.746 526.776 503.67L525.265 503.369C524.413 503.199 523.778 502.903 523.362 502.483C522.949 502.062 522.742 501.527 522.742 500.875C522.742 500.314 522.894 499.831 523.197 499.426C523.504 499.021 523.933 498.708 524.487 498.489C525.043 498.269 525.695 498.159 526.441 498.159C527.543 498.159 528.411 498.392 529.043 498.858C529.68 499.324 530.051 499.958 530.157 500.761ZM540.052 507.176C539.192 507.176 538.451 506.992 537.83 506.625C537.213 506.254 536.736 505.733 536.398 505.062C536.065 504.388 535.898 503.598 535.898 502.693C535.898 501.799 536.065 501.011 536.398 500.33C536.736 499.648 537.205 499.116 537.808 498.733C538.414 498.35 539.122 498.159 539.933 498.159C540.425 498.159 540.902 498.241 541.364 498.403C541.826 498.566 542.241 498.822 542.609 499.17C542.976 499.519 543.266 499.972 543.478 500.528C543.69 501.081 543.796 501.754 543.796 502.545V503.148H536.859V501.875H542.131C542.131 501.428 542.04 501.032 541.859 500.688C541.677 500.339 541.421 500.064 541.092 499.864C540.766 499.663 540.383 499.562 539.944 499.562C539.467 499.562 539.05 499.68 538.694 499.915C538.342 500.146 538.069 500.449 537.876 500.824C537.686 501.195 537.592 501.598 537.592 502.034V503.028C537.592 503.612 537.694 504.108 537.898 504.517C538.107 504.926 538.397 505.239 538.768 505.455C539.139 505.667 539.573 505.773 540.069 505.773C540.391 505.773 540.684 505.727 540.95 505.636C541.215 505.542 541.444 505.402 541.637 505.216C541.83 505.03 541.978 504.801 542.08 504.528L543.688 504.818C543.559 505.292 543.328 505.706 542.995 506.062C542.665 506.415 542.251 506.689 541.751 506.886C541.254 507.08 540.688 507.176 540.052 507.176ZM553.91 507H549.785V495.364H553.944C555.114 495.364 556.122 495.597 556.967 496.062C557.811 496.525 558.461 497.189 558.915 498.057C559.374 498.924 559.603 499.962 559.603 501.17C559.603 502.383 559.374 503.424 558.915 504.295C558.461 505.167 557.808 505.835 556.955 506.301C556.107 506.767 555.092 507 553.91 507ZM552.245 504.892H553.808C554.535 504.892 555.147 504.763 555.643 504.506C556.143 504.244 556.518 503.841 556.768 503.295C557.022 502.746 557.148 502.038 557.148 501.17C557.148 500.311 557.022 499.608 556.768 499.062C556.518 498.517 556.145 498.116 555.648 497.858C555.152 497.6 554.54 497.472 553.813 497.472H552.245V504.892ZM565.357 507.17C564.46 507.17 563.687 506.989 563.039 506.625C562.395 506.258 561.899 505.739 561.55 505.068C561.202 504.394 561.028 503.597 561.028 502.676C561.028 501.778 561.202 500.991 561.55 500.312C561.899 499.634 562.389 499.106 563.022 498.727C563.658 498.348 564.405 498.159 565.261 498.159C565.836 498.159 566.372 498.252 566.869 498.438C567.369 498.619 567.804 498.894 568.175 499.261C568.55 499.629 568.842 500.091 569.05 500.648C569.259 501.201 569.363 501.848 569.363 502.591V503.256H561.994V501.756H567.085C567.085 501.407 567.009 501.098 566.857 500.83C566.706 500.561 566.496 500.35 566.227 500.199C565.961 500.044 565.653 499.966 565.3 499.966C564.933 499.966 564.607 500.051 564.323 500.222C564.043 500.388 563.823 500.614 563.664 500.898C563.505 501.178 563.424 501.491 563.42 501.835V503.261C563.42 503.693 563.499 504.066 563.658 504.381C563.821 504.695 564.05 504.938 564.346 505.108C564.641 505.278 564.992 505.364 565.397 505.364C565.666 505.364 565.912 505.326 566.136 505.25C566.359 505.174 566.55 505.061 566.71 504.909C566.869 504.758 566.99 504.572 567.073 504.352L569.312 504.5C569.198 505.038 568.965 505.508 568.613 505.909C568.264 506.307 567.814 506.617 567.261 506.841C566.711 507.061 566.077 507.17 565.357 507.17ZM578.844 498.273L575.793 507H573.066L570.015 498.273H572.572L574.384 504.517H574.475L576.282 498.273H578.844ZM580.083 507V498.273H582.504V507H580.083ZM581.299 497.148C580.939 497.148 580.63 497.028 580.373 496.79C580.119 496.547 579.992 496.258 579.992 495.92C579.992 495.587 580.119 495.301 580.373 495.062C580.63 494.82 580.939 494.699 581.299 494.699C581.659 494.699 581.966 494.82 582.219 495.062C582.477 495.301 582.606 495.587 582.606 495.92C582.606 496.258 582.477 496.547 582.219 496.79C581.966 497.028 581.659 497.148 581.299 497.148ZM588.386 507.17C587.492 507.17 586.723 506.981 586.079 506.602C585.439 506.22 584.946 505.689 584.602 505.011C584.261 504.333 584.09 503.553 584.09 502.67C584.09 501.777 584.263 500.992 584.607 500.318C584.956 499.64 585.45 499.112 586.09 498.733C586.73 498.35 587.492 498.159 588.374 498.159C589.136 498.159 589.802 498.297 590.374 498.574C590.946 498.85 591.399 499.239 591.732 499.739C592.066 500.239 592.249 500.826 592.283 501.5H589.999C589.935 501.064 589.764 500.714 589.488 500.449C589.215 500.18 588.857 500.045 588.414 500.045C588.039 500.045 587.711 500.148 587.431 500.352C587.155 500.553 586.939 500.847 586.783 501.233C586.628 501.619 586.55 502.087 586.55 502.636C586.55 503.193 586.626 503.667 586.778 504.057C586.933 504.447 587.151 504.744 587.431 504.949C587.711 505.153 588.039 505.256 588.414 505.256C588.691 505.256 588.939 505.199 589.158 505.085C589.382 504.972 589.566 504.807 589.71 504.591C589.857 504.371 589.954 504.108 589.999 503.801H592.283C592.246 504.468 592.064 505.055 591.738 505.562C591.416 506.066 590.971 506.46 590.403 506.744C589.835 507.028 589.162 507.17 588.386 507.17ZM597.776 507.17C596.894 507.17 596.13 506.983 595.487 506.608C594.846 506.229 594.352 505.703 594.004 505.028C593.655 504.35 593.481 503.564 593.481 502.67C593.481 501.769 593.655 500.981 594.004 500.307C594.352 499.629 594.846 499.102 595.487 498.727C596.13 498.348 596.894 498.159 597.776 498.159C598.659 498.159 599.42 498.348 600.06 498.727C600.704 499.102 601.201 499.629 601.549 500.307C601.897 500.981 602.072 501.769 602.072 502.67C602.072 503.564 601.897 504.35 601.549 505.028C601.201 505.703 600.704 506.229 600.06 506.608C599.42 506.983 598.659 507.17 597.776 507.17ZM597.788 505.295C598.189 505.295 598.524 505.182 598.793 504.955C599.062 504.723 599.265 504.409 599.401 504.011C599.541 503.614 599.612 503.161 599.612 502.653C599.612 502.146 599.541 501.693 599.401 501.295C599.265 500.898 599.062 500.583 598.793 500.352C598.524 500.121 598.189 500.006 597.788 500.006C597.382 500.006 597.041 500.121 596.765 500.352C596.492 500.583 596.286 500.898 596.146 501.295C596.009 501.693 595.941 502.146 595.941 502.653C595.941 503.161 596.009 503.614 596.146 504.011C596.286 504.409 596.492 504.723 596.765 504.955C597.041 505.182 597.382 505.295 597.788 505.295ZM606.066 501.955V507H603.646V498.273H605.952V499.812H606.055C606.248 499.305 606.572 498.903 607.026 498.608C607.481 498.309 608.032 498.159 608.68 498.159C609.286 498.159 609.814 498.292 610.265 498.557C610.716 498.822 611.066 499.201 611.316 499.693C611.566 500.182 611.691 500.765 611.691 501.443V507H609.271V501.875C609.274 501.341 609.138 500.924 608.862 500.625C608.585 500.322 608.204 500.17 607.719 500.17C607.394 500.17 607.106 500.241 606.856 500.381C606.61 500.521 606.416 500.725 606.276 500.994C606.14 501.259 606.07 501.58 606.066 501.955Z" fill="#8D8D99"/>
<path d="M375.664 510.182H451.266V511.273H375.664V510.182Z" fill="#8D8D99"/>
<path d="M464.164 510.182H530.918V511.273H464.164V510.182Z" fill="#8D8D99"/>
<path d="M548.773 510.182H612.629V511.273H548.773V510.182Z" fill="#8D8D99"/>
<a href="https://phosphoricons.com/">
<rect fill="black" fill-opacity="0" x="279.664" y="3.31818" width="75.6023" height="19.3636"/>
</a>
<a href="https://ionic.io/ionicons">
<rect fill="black" fill-opacity="0" x="368.164" y="3.31818" width="66.7543" height="19.3636"/>
</a>
<a href="https://devicon.dev/">
<rect fill="black" fill-opacity="0" x="452.773" y="3.31818" width="63.8551" height="19.3636"/>
</a>
<defs>
<clipPath id="clip0_805_5404">
<rect width="24" height="24" fill="white" transform="translate(80 400)"/>
</clipPath>
<clipPath id="clip1_805_5404">
<rect width="24" height="24" fill="white" transform="translate(224 400)"/>
</clipPath>
<clipPath id="clip2_805_5404">
<rect width="24" height="24" fill="white" transform="translate(272 400)"/>
</clipPath>
</defs>
</svg>
