<?xml version="1.0" encoding="UTF-8"?>
<svg version="1.1" viewBox="0 0 1600 677" width="1280" height="1280" xmlns="http://www.w3.org/2000/svg">
<path transform="translate(0)" d="m0 0h1600v677h-1600z" fill="#FCFCFC"/>
<path transform="translate(362,50)" d="m0 0h20l19 1 6 2 16 2 14 3 26 8 21 9 17 8 9 1v2l7 1 10 5 7 3 21 11 18 13 6 5v2l4 2 15 15 9 11 7 10 12 20 9 17 10 24 9 27 8 31 5 36 1 15v29l-3 29-6 31-12 36-12 26-8 15-18 27-14 17-7 8-16 16-11 9-14 10-9 6-16 8-13 6-20 7-29 7-19 3-30 2h-36l-26-4-36-9-21-7-20-9-29-9-25-11-14-7-16-10-6-4-17-13-11-9-9-9-8-7-11-11-7-9v-2l-4-2v-3l-3-1v-3l-4-2-1-4-4-2v-3l-3-1-5-7v-3l-3-1-4-5-6-12-10-18-9-21-7-20-5-28-1-9v-22l3-27 3-15 6-20 10-25 10-20 13-21 12-17 13-18 11-12 15-16 8-8 11-9 13-11 15-10 19-12 31-15 36-12 29-6 25-3z" fill="#B4B5B5"/>
<path transform="translate(362,50)" d="m0 0h20l19 1 6 2 16 2 14 3 26 8 21 9 17 8 9 1v2l7 1 10 5 7 3 21 11 18 13 6 5v2l4 2 15 15 9 11 7 10 12 20 9 17 10 24 9 27 8 31 5 36 1 15v29l-3 29-6 31-12 36-12 26-8 15-18 27-14 17-7 8-16 16-11 9-14 10-9 6-16 8-13 6-20 7-29 7-19 3-30 2h-36l-26-4-36-9-21-7-20-9-29-9-25-11-14-7-16-10-6-4-17-13-11-9-9-9-8-7-11-11-7-9v-2l-4-2v-3l-3-1v-3l-4-2-1-4-4-2v-3l-3-1-5-7v-3l-3-1-4-5-6-12-10-18-9-21-7-20-5-28-1-9v-22l3-27 3-15 6-20 10-25 10-20 13-21 12-17 13-18 11-12 15-16 8-8 11-9 13-11 15-10 19-12 31-15 36-12 29-6 25-3zm-7 19-36 3-32 6-36 12-5 3-7 3-14 7-4 1v2l-5 1v2l-5 1v2h-3v2l-5 2-3 1-3 3-3 1v2h-3l-5 5-10 8-15 14-10 10-7 8-5 4-6 9-2 1-3 5-1 3h-2l-1 3-2 1-4 7-10 14v2h-2v3h-2l-2 7h-2l-10 21-5 10-9 28-5 23-2 17v18l3 30 1 4h2l1 9 10 28 8 17 16 24 8 11 3 4h2l2 5 8 9 9 11 14 14 9 8 2 3 5 3 14 12 13 9 23 13 21 9 27 9 19 5h8l1-4 9-9 8-7 9-9 7-8 56-56 4-5v-7l10-15 4-10 6-11 3-5 5-7 5-13 2-12 1-3h2l-1-3-6 5-5-3-7-8-27-27-1-2 6-2 10 10 8 7 14 14 4-2 6-8 1-5-16-17-8-10-1-7 3-5v-2l5-2 1-1h8l11 8 11 11 2-1-2-4-11-11-5-7-1-7 4-8 5-3h9l6 4 1 4 4 1 5 4-1-5-9-10-2-4 1-9 4-5 6-3 8 1 5-5-2-5-1-7 3-6 9-10 22-22 1-6 2-7 9-15 3-6 4-16 7-11 1-7-7 6-20 20-8 7-121 121-4 3-1-2h2l3-6 2-6h2l6-11 5-10 9-21 7-15 5-12 14-28 5-14 5-10 9-22 5-10 5-15 8-15 4-9 1-5v-7l-5-9v-5l1-2-8-4-24-8-4-1h-8v-2l-2-1-31-3z" fill="#5F5F60"/>
<path transform="translate(355,69)" d="m0 0h32l21 2 2 2-15 2-6 4h-2v2h-2l-1 5-13 19-6 8-13 28-5 12-4 10-8 16-6 15-11 23-7 12-6 13-3 5-55 55-7 8-39 39-1 10-1 2-2 12-7 21-8 16-4 5-9 19-4 10-8 16-4 10v9l2 9-1 4 10 14 10 11 9 11 3 3v2h2l4 6-4-2-11-9-7-6-4-2-4-5-10-8-7-8-11-12-8-10-3-4v-2l-3-1-13-18-11-17-8-16-8-20-5-16v-5h-2l-2-14-2-20v-18l3-23 6-24 7-21 8-16 7-15h2l2-7h2v-3h2l2-5 11-15 1-3 2-1 1-3h2l4-8 5-5 3-5 8-7 4-5 19-19 8-7 12-9 1-2h3v-2l5-2 1-2 6-3h2v-2h3v-2l5-1v-2l5-1v-2l10-4 11-6 16-6 29-10 32-6z" fill="#D4D3D3"/>
<path transform="translate(531,165)" d="m0 0 1 4-3 6-5 8-5 18-8 14-3 5-2 7-1 6-29 29-4 6-1 7 3 6v2l-6 5-7-1-7 4-4 7v6l4 6 8 10-1 3-6-5-2-1-2-4-5-3h-9l-6 4-3 7 1 7 8 10 10 10-1 3-7-6-11-10-5-3h-8l-4 3h-2l-2 5-1 7 8 11 10 10 7 8-2 7-7 8-4-2-18-18-8-7-4-4-6 2 7 8 32 32 3-1 4-4 1 3h-2l-4 19-7 14-4 4-4 9-5 9-3 8-9 13v7l-12 13-54 54-7 8-9 9-8 7-4 4v3h-8l-8-2-2-2-7-3-3-6 2-5 8-7 10-17 6-11 3-5 19-38 7-15 5-11 3-6 3-9 4-10 3-6 5-17 4-9 2-4h2l1-5 4-9 4-10 4-8 2-7 5-9 4-11 3-9 8-15 14-20v-3l6-7 93-93 8-7z" fill="#9EA09F"/>
<path transform="translate(461,87)" d="m0 0 3 2-1 4 2 5 3 7v7l-4 12-6 10-5 12-6 16-5 10-10 24-5 11-3 7-9 19-7 15-12 27-6 15-7 12-3 6h-2l-2 7-3 5h-2l-1 6-3 1-2 4-88 88-8 7-11 11v-3l5-10 8-11 7-13 2-6 3-2v-5l5-12 6-15 6-13 11-22 11-25 7-14 10-22 6-12 11-23 9-20 6-18 3-10 1-7 73-73 7-8z" fill="#9EA09F"/>
<path transform="translate(355,69)" d="m0 0h32l13 2v1l-33 5-29 6-33 11-29 13-18 10-15 10-13 10-14 12-10 10-8 7-7 8-12 13-13 17-12 17-14 23-8 16-10 24-7 21-1 4-8 5-3 4-1 5 3 8 4 5 1 5-5-3-9-6-9 1-5 5-2 4 1 7 6 8 21 21-1 3-8 7-3 3-4-2-19-19-2-6-2-20v-18l3-23 6-24 7-21 8-16 7-15h2l2-7h2v-3h2l2-5 11-15 1-3 2-1 1-3h2l4-8 5-5 3-5 8-7 4-5 19-19 8-7 12-9 1-2h3v-2l5-2 1-2 6-3h2v-2h3v-2l5-1v-2l5-1v-2l10-4 11-6 16-6 29-10 32-6z" fill="#FBFBFB"/>
<path transform="translate(758,246)" d="m0 0h49l10 2 4 3 4 1v2l4 1 6 8 5 11 3 11 1 12v14l-3 15-5 13-6 9-8 7-12 5-3 1-37 1-12-1z" fill="#5D5D5E"/>
<path transform="translate(677,374)" d="m0 0h44l10 2 12 6 6 7v2l3 1 4 11 2 9v32l-4 13-2 7h-2l-1 4-2 3h-2l-1 3h-2l-1 3h-3v2l-18 6h-43z" fill="#5F5F60"/>
<path transform="translate(1008,374)" d="m0 0h47l13 4 4 3v2l4 2 4 5 3 13v12l-4 13-7 9h-2l13 40 1 8h-32l-9-33-2-6-5-1v40h-29v-110z" fill="#606061"/>
<path transform="translate(303,56)" d="m0 0h9l-2 5-14 13 3 2-6 2-8 2-34 11-5 3-7 3-14 7h-4v2l-5 1v2l-5 1v2h-3v2l-5 3h-3l-1 3-5 1v2h-3l-1 3-13 10-16 15-7 7h-2l-2 5-9 9h-2l-2 5-4 5h-2l-1 4-3 4h-2l-1 4h-2l-1 4-12 17-1 2h-2v3h-2l-1 5-1 2h-2l-3 9-8 15-6 16-7 23-2 8-6 4-12 12-3 1v-13l3-15 6-20 10-25 10-20 13-21 12-17 13-18 11-12 15-16 8-8 11-9 13-11 15-10 19-12 31-15 36-12z" fill="#070708"/>
<path transform="translate(1447,371)" d="m0 0h29v93l6 1v13l-2 8-15 1-7-2-3-3v-2h-2v-2l-5 3-7 5-5 1h-8l-7-2v-2h-3v-2l-4-1-2-2v-3h-2l-4-10-2-13v-19l3-16 5-10 8-7 9-3 10 1 8 3z" fill="#030303"/>
<path transform="translate(1369,397)" d="m0 0h9l10 4 4 5 2 6v73h-30v-60l-12 1v59h-30v-85h27l1 5 6-2 9-5z" fill="#5F5F60"/>
<path transform="translate(880,270)" d="m0 0h23l10 4 6 5 4 6 3 9 1 13-1 14-1 4h-43l3 8 3 4v2h15l12-3h4l2 7 1 16-14 3-8 1h-15l-9-2-10-6-5-5v-3h-2l-5-12-2-9v-23l4-13 5-8 8-7 8-4z" fill="#050505"/>
<path transform="translate(796,397)" d="m0 0h18l8 3 7 6 3 6 1 5v15l-1 16v14l7 2-1 13-2 9-1 1h-16l-6-4-4-4-4 1-5 4-7 3h-11l-6-3-5-5-4-6-1-4v-15l3-7 4-5 10-5 12-3 8-1v-6l-1-2h-9l-13 2-8 2-1-2-3-24z" fill="#060606"/>
<path transform="translate(362,50)" d="m0 0h20l19 1 6 2 16 2 14 3 26 8 21 9 10 5 4 4 12 8 13 11 12 11 9 10 11 14-1 5-10 10h-2l-10-14-11-13-10-9-9-7-15-11-24-12-10-3-21-7-12-2v-2l-33-3h-32l-36 3-17 3-7-1 6-7 9-8 2-4-4-1 25-3z" fill="#5F5F60"/>
<path transform="translate(1271,397)" d="m0 0h15l11 4 8 5 6 10 2 9v14l-1 11-2 1h-39l2 8 4 4h14l10-2h6l1 20-13 5-5 1h-19l-10-4-9-7-6-8-4-11-1-7v-17l3-14 6-10 8-7 9-4z" fill="#5F5F60"/>
<path transform="translate(1517,398)" d="m0 0h21l11 4v2l5 2 6 10 1 4v24l-1 6-7 1h-34l2 9 6 3h13l9-2h6l2 16v5l-14 4-8 1h-16l-8-3v-2l-5-1-9-9v-3h-2l-2-3-3-12v-25l3-10 5-9 5-5 4-3z" fill="#050505"/>
<path transform="translate(1123,397)" d="m0 0h13l9 3 8 4 7 8 3 8v24l-2 7h-40l4 12h15l11-2h6l2 15v5l-18 6h-18l-9-3-2-1v-2l-5-1-5-5v-2l-3-1v-3h-2l-4-11-1-5v-23l3-11 4-8 7-7 10-5z" fill="#050505"/>
<path transform="translate(931,272)" d="m0 0h32l6 43 2 13 3 1v-8l8-49h29v7l-15 70-4 12h-43l-5-26-4-16-3-14-4-21-2-7z" fill="#050505"/>
<path transform="translate(72,298)" d="m0 0h1l-1 11-2 17v18l3 30v4h2l4 15 9 24 8 16 10 16 12 17 7 8 11 14 12 13 6 7 11 9 2 3 4 2-2 5-4 5-5 2v3l-4-1-11-11-8-7-11-11-7-9v-2l-4-2v-3l-3-1v-3l-4-2-1-4-4-2v-3l-3-1-5-7v-3l-3-1-4-5-6-12-10-18-9-21-7-20-5-28-1-9v-22l2-21h1l1 6 8-7 5-5z" fill="#5F5F60"/>
<path transform="translate(842,400)" d="m0 0h30l2 9 5 38v7h4l1-12 4-27 2-14 1-1h28l-3 17-5 23-7 34-3 10-1 1h-40l-3-9-3-17-4-16-4-21-3-12z" fill="#050505"/>
<path transform="translate(1490,554)" d="m0 0 7 1 11 9 18 18 8 11 1 5-4 6-9 10-22 22-8 5-6-1-11-9-21-21-6-9 1-6 4-6 14-15 7-7 8-7z" fill="#FDD0CD"/>
<path transform="translate(1164,554)" d="m0 0 7 1 14 12 12 12 9 11 2 4v6l-7 9-26 26-9 6-6-1-9-7-22-22-7-9 1-7 4-6 11-12 14-14 10-8z" fill="#FDD0CD"/>
<path transform="translate(838,554)" d="m0 0h5l9 7 10 9 15 16 5 7 1 5-7 10-26 26-10 7-6-1-9-7-23-23-6-9 2-8 8-10 19-19 8-7z" fill="#FCD0CD"/>
<path transform="translate(1490,228)" d="m0 0h5l9 7 13 12 13 14 4 6 1 5-6 9-29 29-8 5h-5l-13-11-21-21-4-6v-8l6-8 30-30z" fill="#FDD0CD"/>
<path transform="translate(1164,228)" d="m0 0 6 1 8 6 13 12 12 13 5 8v6l-7 9-27 27-8 5h-5l-11-9-23-23-5-7 1-7 6-8 31-31z" fill="#FDD0CD"/>
<path transform="translate(185,229)" d="m0 0h6l9 6 27 27 3 5v6l-6 9-26 26-9 6h-8l-12-11-11-11-7-8-4-5h2l-2-4-2-1 1-6 7-9 27-27z" fill="#C9AFAF"/>
<path transform="translate(182,556)" d="m0 0 14 8 17 10 7 3 1 4 7 9 2 4-1 7-7 9-24 24-10 7-7-1-12-11-9-8-14-16-2-3v-6l6-9 27-27 5-2z" fill="#FCD0CD"/>
<path transform="translate(1170,400)" d="m0 0h62l1 3v15l-5 10h-2l-1 5h-2l-1 5h-2l-1 5-1 2h-2l-2 7-3 5h-2v4h26v24h-63l-1-1v-18l11-18h2v-3h2l1-5 5-8h2l1-5 2-3h-27z" fill="#030303"/>
<path transform="translate(606,268)" d="m0 0h2l4 35v45l-3 26-6 29-7 21-5 8-20 20h-2l-2 4-5 5h-2l2-6 11-24 11-33 7-31 2-23v-34l-2-27z" fill="#020202"/>
<path transform="translate(790,273)" d="m0 0h7l6 2 5 5 3 10 1 4 8 7 7 7 7 5 8 1v-9l1-8h1v14l-3 15-5 13-6 9-8 7-12 5-3 1-37 1-12-1v-28l18 18 8 4 5 1 9-3 2-5 1-2v-10l14-3 5-2 2-4 1-7-4-7-7-9-2 21-4 8-3 2h-14l-1-4 1-57z" fill="#5F5F60"/>
<path transform="translate(458,562)" d="m0 0 2 1-29 29-10 4-33 6-24 2h-49l-25-4-12-3 2-4 8-7 3-4 11 1 27 3h32l29-3 28-6 30-10z" fill="#020202"/>
<path transform="translate(77,385)" d="m0 0 15 15 5 1 8-8 2-3 3 1 5 23 8 24 14 28 12 20 10 13 7 9 12 14 8 9v2h2l4 6-4-2-11-9-7-6-4-2-4-5-10-8-7-8-11-12-8-10-3-4v-2l-3-1-13-18-11-17-8-16-8-20-3-9z" fill="#FAFAFA"/>
<path transform="translate(880,270)" d="m0 0h23l10 4 2 4 2 2-1 5-15 15h-2v10l-9 1-7 8-10 9-13 13h-3l-2-3-3-12v-23l4-13 5-8 8-7 8-4z" fill="#5E5E5F"/>
<path transform="translate(513,554)" d="m0 0 8 3 10 9 15 15-2 6h-3l-1 2-2-1-1 5-19 10-13 5-19 7h-5l-5-5-5-7v-8l6-8 8-8 7-8 14-14z" fill="#745857"/>
<path transform="translate(926,400)" d="m0 0h28l1 1v84h-29z" fill="#5F5F60"/>
<path transform="translate(102,446)" d="m0 0 3 1 13 19 7 8 11 14 12 13 6 7 11 9 2 3 4 2-2 5-4 5-5 2v3l-4-1-11-11-8-7-11-11-7-9v-2l-4-2v-3l-3-1v-3l-4-2-1-4-4-2v-3l-3-1-5-7v-3l-3-1-3-7 5-3 7-6z" fill="#070707"/>
<path transform="translate(475,73)" d="m0 0 7 1 12 6 4 4 12 8 13 11 12 11 9 10 11 14-1 5-10 10h-2l-10-14-11-13-10-9-9-7-15-11-26-13 5-4z" fill="#020202"/>
<path transform="translate(549,584)" d="m0 0 2 1 5 8v7l-7 9-26 26-9 6-7-1-10-9-11-10-2-5-2-1 18-6 13-5 17-8 13-7z" fill="#FBD0CD"/>
<path transform="translate(1447,371)" d="m0 0 2 1h23l3 1v6l-5 4-4 5-8 7-13 13-7 8-26 26-6 5-1 5h-1v-19l3-16 5-10 8-7 9-3 10 1 8 3z" fill="#5F5F60"/>
<path transform="translate(132,288)" d="m0 0h8l9 6 19 19 3 5v7l-3 5-4 4-3 1h-7l-8-6-14-14-7-9-1-2v-7l4-6z" fill="#B5B6B6"/>
<path transform="translate(416,6)" d="m0 0h6l11 8 14 14 6 9v7l-6 8-4 2h-8l-20-20-8-10-1-2v-7l6-7z" fill="#D3D3D3"/>
<path transform="translate(1067,332)" d="m0 0h8l10 8 15 15 5 8v6l-4 6-4 4-6 1-7-4-6-5v-2l-4-2-10-10-6-9 1-8 6-7z" fill="#D1D1D1"/>
<path transform="translate(1112,287)" d="m0 0h6l8 6 10 9 9 10 4 7-1 7-6 7-5 2-6-1-10-9-17-17-2-3v-7l4-6z" fill="#D3D3D3"/>
<path transform="translate(1439,287)" d="m0 0 7 1 14 12 8 8 6 8 1 9-7 8-4 2-7-1-10-9-16-16-3-5 1-7 5-7z" fill="#D3D3D3"/>
<path transform="translate(790,273)" d="m0 0h7l6 2 5 5 3 10 1 14-2 21-4 8-3 2h-14l-1-4 1-57z" fill="#FBFBFB"/>
<path transform="translate(838,228)" d="m0 0h5l9 7 24 24 6 10-2 2-9 4-4 1-5-8-8-7-14-14-4-1 1 6 6 14-2 1h-4l-9-12-3-1v-2l-5-1-3-3 7-9 8-7z" fill="#FCCFCC"/>
<path transform="translate(1395,332)" d="m0 0h5l8 6 12 11 9 10 3 6-1 5-7 8-4 2-5-1-8-6-18-18-5-8 1-6 1-2h2l2-4z" fill="#D2D2D2"/>
<path transform="translate(135,613)" d="m0 0h5l9 7 10 9 9 11 2 4v7l-7 8-2 1h-7l-9-7-20-20-1-2v-7l4-6z" fill="#D2D2D2"/>
<path transform="translate(473,617)" d="m0 0 4 1-2 1 16 16 6 10-1 8-7 7-8 1-6-4-12-11-7-7-7-10v-5l-1-2z" fill="#D3D3D3"/>
<path transform="translate(757,249)" d="m0 0h1v112h45v1l-24 1 1 5-4 7-5 4-6 1-7-4-10-9-13-13-3-5v-9l6-7 7-2 8 2 3 1z" fill="#ccc"/>
<path transform="translate(1440,613)" d="m0 0 5 1 9 7 9 8 9 11 2 4v7l-5 6h-2v2l-8 1-6-4-15-15-6-5-4-6 2-9 3-1v-2l5-4z" fill="#B9BABA"/>
<path transform="translate(788,613)" d="m0 0 5 1 9 7 16 16 4 6v7l-4 6-6 4-7-1-12-11-7-7-5-4-4-5-1-6 3-6 3-3h2v-2z" fill="#bbb"/>
<path transform="translate(1114,613)" d="m0 0 5 1 3 2v2l5 2 10 9 9 11 2 4v7h-2l-1 4h-2v2l-5 3-7-1-12-11-15-15-2-3 1-7 9-9z" fill="#B8B9B8"/>
<path transform="translate(707,401)" d="m0 0h9l7 3 4 8 1 7v22l-2 11-3 5-9 3h-7l-1-1v-57z" fill="#F6F6F6"/>
<path transform="translate(812,296)" d="m0 0h1l1 10 7 8 3 6-1 7-5 5-6 3-11 1 1 10-4 7-5 3-6 1-9-4-8-7-7-6-5-7v-20l7-4 9 1 6 5-5 5-7-1h-3v4h-2l1 4 4 3v2l4 2 12 12 3 2h4l1-2v-6l-4-4 1-2h14l3-2 3-7 2-21z" fill="#020202"/>
<path transform="translate(539,252)" d="m0 0 4 1 10 10 2 4v7l-6 8-28 28-7 4-6-1-4-3v-2h2v-2h2l1-5 2-2 6-2-1-5-11-12-2-4h2l1 2 3 1v2l3 1v2l4 2 5 4 4-1-1-4-3-4v-3l6-1 1-4 5 1 1 1h5v-5l-2-2v-3h2l1-3h2z" fill="#755857"/>
<path transform="translate(743,7)" d="m0 0 5 1 4 2v2l4 2 8 7 9 9v2l3 1 1 9-5 7-4 2h-6l-11-9-11-11v-2h-2l-5-7v-6l7-8z" fill="#FAFAFA"/>
<path transform="translate(92,7)" d="m0 0 6 2 4 2 7 8 14 14v2h2l1 7h-2l-1 4-3 4-10 1-10-9-13-13-5-7v-8l5-5z" fill="#F9F9F9"/>
<path transform="translate(1069,7)" d="m0 0 5 1 12 9v2h2l7 8 8 9 1 6-6 7-3 2h-6l-11-9-10-10-4-5v-2h-2l-2-4 1-7 4-5z" fill="#F8F8F8"/>
<path transform="translate(1396,7)" d="m0 0 5 1 12 11 13 13 3 5v6l-5 6-3 2-8-1-7-7-6-5-14-16v-7l4-5z" fill="#F7F7F7"/>
<path transform="translate(836,245)" d="m0 0 5 2 24 24 2 6-7 7-5 11-3 11-6 5h-2l-2-26-5-16 1-4 4 1-7-16z" fill="#F8CFCC"/>
<path transform="translate(910,437)" d="m0 0 1 3-7 34-3 10-1 1h-40l8-4 2-4 8-7 28-28 2-3h2z" fill="#5E5E5F"/>
<path transform="translate(429)" d="m0 0h33l7 8 5 8-1 7-5 6-8 2-7-4-15-15-7-8z" fill="#D4D4D4"/>
<path transform="translate(1210,461)" d="m0 0h25v24h-56v-1l11-1 19-19 2-1z" fill="#5E5E5F"/>
<path transform="translate(435,58)" d="m0 0 16 4 22 8 5 2-5 4-9 9-6 1-19-7-11-3-8-1v-1l6-2 9-10z" fill="#5F5F60"/>
<path transform="translate(105)" d="m0 0h29l8 8 4 6 1 6-3 5-6 5-7-1-8-7-15-15z" fill="#F8F8F8"/>
<path transform="translate(1409)" d="m0 0h29l5 4 7 9 1 8-5 6-4 3-7-1-12-11-11-12z" fill="#F5F5F5"/>
<path transform="translate(757)" d="m0 0h30l10 12 2 4-1 7-7 6h-8l-12-11-10-11v-2l-3-1z" fill="#F4F4F4"/>
<path transform="translate(1083)" d="m0 0h30l7 8 5 7v7l-8 7h-7l-6-4-7-8-5-4-5-6v-2h-2z" fill="#F7F7F7"/>
<path transform="translate(185,244)" d="m0 0 5 3 16 16 7 9v3l-5-1-11-10 1 4 3 6-1 3-6-1-5-2 6 7 4 5-1 4-4-1-12-11-4-3v-2l-4-2-6-8 1-3 3-1 19 8-8-15-1-5z" fill="#D4D3D3"/>
<path transform="translate(932,370)" d="m0 0h17v2l4 1 3 6v11l-4 4-4 2h-15l-6-3-3-6 1-10 3-5z" fill="#090909"/>
<path transform="translate(1549,461)" d="m0 0h6l2 16v5l-14 4-8 1h-16l-3-2 4-6 10-9 2-4-5-1v-1l19-2z" fill="#5F6060"/>
<path transform="translate(1488,571)" d="m0 0 4 1 8 7v2l4 2 13 13 1 4-1 1h-5l-9-10-3-1 5 9v4l-6-1-9-5 7 8 6 6-1 5h-4l-22-22-4-7 5-2 18 8-8-18z" fill="#FDFDFD"/>
<path transform="translate(1162,245)" d="m0 0 4 1 10 10 8 7 8 9-1 3-5-1-6-5v-2h-2l-4-5 5 15-6-1-8-4 7 8 5 6-2 5-4-2-23-23-2-5 1-1h6l16 7-8-18z" fill="#FDFDFD"/>
<path transform="translate(183,571)" d="m0 0 5 1 25 25v4l-3 1-8-7v-2l-6-3 5 11-1 2-5-1-9-4 12 12 1 4-3 3-7-6-17-17-4-5 2-4 5 1 13 6h2l-7-16z" fill="#FDFDFD"/>
<path transform="translate(1488,245)" d="m0 0 4 1 8 8 8 7 10 11-1 3-5-1-11-11-2-1 6 12v3l-6-1-8-4 11 12 1 4-2 3-4-2-20-20-5-6 1-3h6l16 7-8-17z" fill="#FDFDFD"/>
<path transform="translate(1163,570)" d="m0 0 7 6 22 22-1 3-5-1-10-10h-2l5 11v2l-6-1-8-4 6 7 6 6-1 5h-4l-24-24-2-5 5-2 15 7h2l-5-13-2-3 1-5z" fill="#FDFDFD"/>
<path transform="translate(1073,452)" d="m0 0h2l9 29v4h-32l-1-3v-7l21-21z" fill="#0A0A0A"/>
<path transform="translate(1416,310)" d="m0 0 8 1 5 4v3h-5l-4-3-4 1-4 5 2 5 9 9 8 7 7 6 6 1 2-2v-6l-9-12-4 6-4-1 1-4 6-7 4 2 9 10 4 8-1 7-8 7-6 1-9-7-15-15-7-8-1-4 3-8z" fill="#D4D4D4"/>
<path transform="translate(1090,310)" d="m0 0 8 1 6 4-1 3-5 1-5-4-5 3-2 5 7 8 16 15 6 4 4-1 2-3v-5l-3-1-4-7-4-4-3 6-4-1 1-4 6-7 4 2 10 11 3 6-1 7-4 5-8 4-5-2-8-7-17-17-3-4v-8l4-6z" fill="#D3D3D3"/>
<path transform="translate(836,571)" d="m0 0 4 1 25 25v4l-5-1-9-9-3-1 4 8v5l-5-1-9-5 7 8 6 7-1 4-5-1-20-20-5-6 1-3h6l13 6h2l-7-17z" fill="#FDFDFD"/>
<path transform="translate(438,635)" d="m0 0 7 1 6 4v3l-2 2h-5l-2-2-4 1-2 2 1 6 14 15 8 7 6 1 4-4-2-5-8-9v-2h-2l-2 6-4-1-1-2 7-8h4l7 7 6 10 1 4-3 6h-20l-7-7-8-7-8-8-1-2v-8l4-6z" fill="#D4D4D4"/>
<path transform="translate(510,571)" d="m0 0 4 1 21 21-5 4-21 10-2-2v-2l-7-7v-2h-2l-4-5 1-3 3-1 19 8-8-17z" fill="#5F5E5F"/>
<path transform="translate(1437,422)" d="m0 0h7l4 2v38l-2 1h-9l-3-3-1-3v-28z" fill="#F4F4F4"/>
<path transform="translate(1113,618)" d="m0 0 4 2 10 9 13 12 4 4v6l-3 4-6 1-7-6-7-8-10-10-4-5 2-6z" fill="#FCFCFC"/>
<path transform="translate(1440,618)" d="m0 0 5 3 15 14 11 11-1 5-3 4-5 1-8-7-12-12-8-10 1-5z" fill="#FCFCFC"/>
<path transform="translate(788,618)" d="m0 0 8 6 22 22-1 6-5 4-4-1-25-25-2-5 5-6z" fill="#FDFDFD"/>
<path transform="translate(1363,359)" d="m0 0h3v2l4 2 15 15 8 7 7 6 10-10 6 3-2 5-11 11-3 4h-2l-9-11-21-21v-2h-2l-5-6z" fill="#D3D3D3"/>
<path transform="translate(132,323)" d="m0 0 4 2 6 5 6 8 1 2v8l-6 7-4 2h-7l-10-8-11-12-2-3 1-6 8 6 10 10 8 5h3l2-3v-5l-9-10-4 4-3-1 1-4z" fill="#B5B6B6"/>
<path transform="translate(135,619)" d="m0 0 5 2 8 8 8 7 10 10-1 5-5 5-6-3-17-17-8-10 3-5z" fill="#FDFDFD"/>
<path transform="translate(1113,293)" d="m0 0 5 2 7 7 8 7 7 7 4 5-1 5-3 3-5-1-8-7-18-18-1-5z" fill="#FDFDFD"/>
<path transform="translate(1439,293)" d="m0 0 4 1 16 15 11 12-1 4-4 4-4-1-8-7-17-17-2-3 1-4z" fill="#FDFDFD"/>
<path transform="translate(135,294)" d="m0 0 5 1 15 14 9 11-1 5-3 3-6-2-15-14-7-7-2-4 1-4z" fill="#D4D4D4"/>
<path transform="translate(1395,337)" d="m0 0 4 1 13 12 10 11 2 3-1 5-3 3-5-2-8-7-7-6-7-8-4-4 1-4z" fill="#FDFDFD"/>
<path transform="translate(792,398)" d="m0 0 9 1-2 4-13 12-10 10-2 1v3h-2l-1-2-3-24z" fill="#5D5D5E"/>
<path transform="translate(416,658)" d="m0 0h6l8 6 12 12v1h-34l-2-5 1-6 5-6z" fill="#C1C2C2"/>
<path transform="translate(395,52)" d="m0 0h8l25 4 7 2 1 4-11 12-7-1-9-2 4-1-14-16z" fill="#020202"/>
<path transform="translate(417,12)" d="m0 0 4 1 13 12 11 11 1 6-4 4-4-1-8-7-16-16-2-3 1-4z" fill="#FDFDFD"/>
<path transform="translate(459,621)" d="m0 0h7l22 22 3 5-1 4-3 3-6-2-20-20-3-4v-7z" fill="#FDFDFD"/>
<path transform="translate(753,448)" d="m0 0h3l-2 9-2 7h-2l-1 4-2 3h-2l-1 3h-2l-1 3h-3v2l-12 4-1 1h-11l4-2h2l2-4 29-29z" fill="#040404"/>
<path transform="translate(1068,338)" d="m0 0 5 1 15 14 8 8 1 7-2 3h-5l-10-9-13-13-3-4 1-4z" fill="#FDFDFD"/>
<path transform="translate(1038,375)" d="m0 0h20l10 3 4 3v2l4 2 4 5v6l-4 5-2 2-12-11-13-13-1-2-10-1z" fill="#070707"/>
<path transform="translate(743,7)" d="m0 0 5 1 4 2v2l4 2 8 7 9 9v2l3 1 1 9-5 7-4 2h-6l-11-9-11-11v-2h-2l-5-7v-6l7-8zm1 3-7 7 1 4 7 8 19 19 7-1 3-2 1-6-6-8-20-20z" fill="#B5B6B6"/>
<path transform="translate(1123,397)" d="m0 0h13v1h-8l-2 4-14 13-5 4-7 8-2 3h-3l-2 6h-1l1-11 4-11 9-10 10-5z" fill="#5A5A5B"/>
<path transform="translate(836,245)" d="m0 0 5 2 24 24 2 6-7-2-12-12 5 11v3l-6-1-5-2h-3l-2-5 1-4 4 1-7-16z" fill="#FCFCFC"/>
<path transform="translate(436)" d="m0 0h21l-2 4h-3v4l8-4 7 7 3 6-1 5-4 4-5-2-8-7-16-16z" fill="#FCFCFC"/>
<path transform="translate(1394,659)" d="m0 0 7 1 10 8 6 7 2 2h-30l-3-5 1-7z" fill="#F7F7F7"/>
<path transform="translate(1069,659)" d="m0 0 6 1 11 9 6 7v1h-28l-3-3-1-6 3-5z" fill="#F7F7F7"/>
<path transform="translate(90,659)" d="m0 0 6 1 8 6 10 10v1h-29l-3-5 1-7 5-5z" fill="#F7F7F7"/>
<path transform="translate(743,659)" d="m0 0 6 1 8 7 9 9v1h-28l-3-3-1-6 3-5z" fill="#F8F8F8"/>
<path transform="translate(1103,296)" d="m0 0 1 3 4-1 3 6 22 22 7 3-2 3 5-1-3 3-6 1-7-4-23-23-2-3v-7z" fill="#D4D4D4"/>
<path transform="translate(1429,297)" d="m0 0 1 3 4-2 4 7 21 21 6 3-2 1v2h5l-1 2-8 1-8-6-20-20-3-5z" fill="#D4D4D4"/>
<path transform="translate(92,7)" d="m0 0 6 2 4 2 7 8 14 14v2h2l1 7h-2l-1 4-3 4-10 1-10-9-13-13-5-7v-8l5-5zm-3 3-4 4v8h2l1 4 19 19 5 3h5l2-4 4-2-1-5-7-8-19-19z" fill="#959696"/>
<path transform="translate(1392,460)" d="m0 0 2 1v24l-27-1 5-5 17-16z" fill="#020202"/>
<path transform="translate(1267,398)" d="m0 0h8l-2 4-10 9-13 13-6 7h-1v-9l6-12 9-8z" fill="#090909"/>
<path transform="translate(108,342)" d="m0 0 7 6 9 9 3 5v7l-4 6-6 4-8-1-2-2v-6l9 1 3-3-1-6-9-10-2-2v-7z" fill="#B5B6B6"/>
<path transform="translate(718,375)" d="m0 0h11l14 7 6 7v2l3 1v6h-2l-1 4-4-2-11-11-8-7-4-5z" fill="#060606"/>
<path transform="translate(789,309)" d="m0 0 5 3 10 10 4 5-2 6-3 2h-14l-1-4z" fill="#D3D3D3"/>
<path transform="translate(812,296)" d="m0 0h1l1 10 7 8 3 6-1 7-5 5-6 3-9 1 4-7 2-4 2-21z" fill="#090909"/>
<path transform="translate(742,339)" d="m0 0 6 1 5 5 4 2v14h13l2 1-2 7-4 2-6-4-19-19-1-7z" fill="#FBFBFB"/>
<path transform="translate(1069,7)" d="m0 0 5 1 12 9v2h2l7 8 8 9 1 6-6 7-3 2h-6l-11-9-10-10-4-5v-2h-2l-2-4 1-7 4-5zm-1 3-2 1v2l-3 1-1 6 6 8 5 3 7 8 9 9h6l5-5 1-5-4-6-18-18-6-4z" fill="#6C6D6D"/>
<path transform="translate(1037,401)" d="m0 0h7l5 3 2 6v8l-3 7-1 1h-10z" fill="#F8F8F8"/>
<path transform="translate(790,294)" d="m0 0 7 6 13 13v12l-1 2-4-2-9-10-7-6v-9z" fill="#FCFCFC"/>
<path transform="translate(758,337)" d="m0 0 20 20 3 2v2l-4 1-19-1z" fill="#040404"/>
<path transform="translate(1396,7)" d="m0 0 5 1 12 11 13 13 3 5v6l-5 6-3 2-8-1-7-7-6-5-14-16v-7l4-5zm-1 2-5 5-3 5 7 9 17 16 4 4h6l6-6v-5l-9-10-16-16-3-2z" fill="#656666"/>
<path transform="translate(1429,624)" d="m0 0 4 4h3l9 11 15 15 6 1-1 2 2 2-8 1-6-4-15-15-6-5-4-6z" fill="#bbb"/>
<path transform="translate(105)" d="m0 0 5 1 8 8 7 8 9 8h6l3-1 1-7-3-6-5-5-2-4-5 4-1 2h-2l2-4 4-4 4 2 9 10 2 5-1 6-8 7-7-1-8-7-15-15z" fill="#BDBEBD"/>
<path transform="translate(777,623)" d="m0 0h3 2l1 5 7 8 19 19 3 2h-3v2l3 1-7-1-12-11-7-7-5-4-4-5-1-6z" fill="#BCBDBD"/>
<path transform="translate(1409)" d="m0 0h4l24 24 7 1 4-5-1-6-2-5h-2l-3-4-6-1 2-4 4 2 5 5 5 6 1 8-5 6-4 3-7-1-12-11-11-12z" fill="#B8B9B9"/>
<path transform="translate(1106,622)" d="m0 0 2 1 1 5 11 12 8 8 5 6 7 1-3 3 1 2-7-1-12-11-15-15-2-3 1-7 1 2z" fill="#BBBCBC"/>
<path transform="translate(416,340)" d="m0 0 7 1 12 11 4 6h-2v2l-8 1-7-5-8-10 1-5z" fill="#9FA1A0"/>
<path transform="translate(757)" d="m0 0h4l20 20 6 5 6-1 3-4-1-6-9-11-2-1v-2l4 1 9 11 2 4-1 7-7 6h-8l-12-11-10-11v-2l-3-1z" fill="#B7B8B7"/>
<path transform="translate(90,340)" d="m0 0h5l12 10v16l-3-1-7-8-8-8-2-6z" fill="#FDFDFD"/>
<path transform="translate(1140,593)" d="m0 0 4 1 10 9 15 15 1 4-2 2-4-1-24-24-1-5z" fill="#FDFDFD"/>
<path transform="translate(135,613)" d="m0 0h5l9 7 10 9 1 5 6 8-1 4-15-15-8-7-5-4-2-2h2l-1-2-3-2z" fill="#D3D3D3"/>
<path transform="translate(1466,593)" d="m0 0 4 1 7 7 8 7 11 11-1 4-4 1-25-25-1-5z" fill="#FDFDFD"/>
<path transform="translate(161,267)" d="m0 0 4 1 8 7 18 18-1 4h-4l-17-16-9-9z" fill="#D4D4D4"/>
<path transform="translate(1083)" d="m0 0h5v3l4 2 8 9v2l4 2 6 5v2l6 1 5-4 1-6-4-6v-2h-2l-4-5-2-1-1 3-3 3h-2l2-4 4-4h3l7 8 5 7v7l-8 7h-7l-6-4-7-8-5-4-5-6v-2h-2z" fill="#ADAFAE"/>
<path transform="translate(1140,267)" d="m0 0 4 1 9 9 8 7 8 8 1 4-2 2-4-1-24-24-1-5z" fill="#FDFDFD"/>
<path transform="translate(162,593)" d="m0 0 4 1 9 9 8 7 8 9-1 5-4-1-26-26z" fill="#FDFDFD"/>
<path transform="translate(789,286)" d="m0 0 5 2 9 7 7 7 1-5h1l-1 22h-1l-1-8-4-2-14-14-1 5h-1z" fill="#CFCFCF"/>
<path transform="translate(814,593)" d="m0 0 5 2 11 11 8 7 6 7-1 3-3 1-8-7-15-15-4-5z" fill="#FDFDFD"/>
<path transform="translate(58,35)" d="m0 0 4 1 13 13 13 12 7 8 3-3 6-7h2v-2h4v2l-5 5-6 7h-2l-1 3-4-2-8-8-7-8-7-6v-2h-2l-4-5v-2l-3-1z" fill="#A2A3A3"/>
<path transform="translate(787,287)" d="m0 0h1v7l-3 5 1 5 2 2v12l-1-2-4-2-7-8v-9l4-6 4-3z" fill="#020202"/>
<path transform="translate(711,34)" d="m0 0h2l7 8 6 5v2l4 2 17 17 4-2 8-8 3 1-9 9-2 3h-2l-1 3-8-6-11-12-7-6-7-8-5-5z" fill="#929393"/>
<path transform="translate(877,271)" d="m0 0h3l-1 4-9 10-5 6-7 5h-2l-1 3-1-4 6-12 7-7z" fill="#5F5E5F"/>
<path transform="translate(1466,267)" d="m0 0 4 1 12 12 8 7 6 7-2 4-4-1-16-17-9-9z" fill="#FDFDFD"/>
<path transform="translate(110,637)" d="m0 0h7l7 4v2l-4-1-4-2-5 1-3 4v7l10 10 8 7 7 7v1l-7-1-4-4v-2l-4-2-10-9-2-4-2-1-1-8 4-6z" fill="#AFB0AF"/>
<path transform="translate(458,649)" d="m0 0 4 2 8 9 5 10-3 7h-7l4-8-9-11-1-3h-2l-2 6-4-1-1-2 7-8z" fill="#D4D4D4"/>
<path transform="translate(416,663)" d="m0 0 6 1 13 12v1h-20l-4-5 1-5z" fill="#FDFDFD"/>
<path transform="translate(927,401)" d="m0 0h21l-5 5-12 11-4 5z" fill="#020202"/>
<path transform="translate(1110,323)" d="m0 0 4 2 10 11 3 6-1 7-5 4-3-1 2-4 1-7-3-1-4-7-4-4-3 6-4-1 1-4z" fill="#C1C2C2"/>
<path transform="translate(1036,34)" d="m0 0 4 2 19 19 6 5 4 5 3 3v2l12-12 4-1v3l-8 7-6 7h-2l-7-8-6-6v-2l-4-2-5-5v-2h-2l-7-8-5-5z" fill="#787979"/>
<path transform="translate(743,7)" d="m0 0 5 1 4 2v2l4 2 8 7 9 9v2l3 1 1 9-3 3v-6l-6-8-19-19-3-2h-5l-3 6h-2l-1 6h-2v-6l7-8z" fill="#989A99"/>
<path transform="translate(888,296)" d="m0 0 6 1 5 5v8h-16l-1-1 1-8z" fill="#F1F1F1"/>
<path transform="translate(1126,422)" d="m0 0h6v2l3 1 3 7-1 4h-16v-9z" fill="#EDEDED"/>
<path transform="translate(1415,637)" d="m0 0 8 1 5 3v2l-12-4-1 3-4 4 1 5 2 5 4 1 6 7 7 6 7 7-6-1-8-6-15-15-1-9 3-5z" fill="#B0B1B1"/>
<path transform="translate(1522,423)" d="m0 0h9l4 3 1 9-2 1h-15v-8z" fill="#F2F2F2"/>
<path transform="translate(1275,423)" d="m0 0h6l5 4v9h-15l-1-1v-6l3-5z" fill="#F4F4F4"/>
<path transform="translate(765,637)" d="m0 0 5 1 6 3v2l-4-1-4-2-4 1-5 5-1 3 2 1 3 5 20 20 3 2h-6v-2l-4-2-10-8-9-11-1-1v-7l3-6z" fill="#A1A2A2"/>
<path transform="translate(186,510)" d="m0 0 3 1-2 5-2 3 2 9 2 4 3 2v2l4 2 10 9-2 1-13-8-2-4-1-3h-2l-9-11-3-3 1-2h4z" fill="#D2D2D2"/>
<path transform="translate(1091,637)" d="m0 0 5 1 7 4-4 1-5-3-4 1-5 5-1 3 5 7 8 7 11 11 4 3h-6v-2l-4-2-8-7-5-5-6-8-1-7 4-6z" fill="#989A99"/>
<path transform="translate(1363,35)" d="m0 0 4 2 27 27 6 5 12-12h2l-2 4-10 10-2 3h-2l-3-4v-2l-5-2-7-9-20-20z" fill="#636364"/>
<path transform="translate(385,34)" d="m0 0h3v2l5 2 11 11v2l7 2-4 1-6-2-19-1v-1l12-1-10-10-1-4z" fill="#C7C7C7"/>
<path transform="translate(457)" d="m0 0h5l7 8 5 8-1 7-4 5h-6l2-1 2-4 2-3-1-6-8-9-8 4-1-3 1-2 3-1z" fill="#C0C1C1"/>
<path transform="translate(797,451)" d="m0 0h8v12l-3 3h-6l-3-3v-8z" fill="#F6F6F6"/>
<path transform="translate(758,246)" d="m0 0h16l-2 5-7 6-6 7h-1z" fill="#030303"/>
<path transform="translate(1436,323)" d="m0 0 4 2 9 10 3 5v6h-4v-5l-3-1-8-11-4 6-4-1 1-4z" fill="#C0C1C0"/>
<path transform="translate(787,321)" d="m0 0h1l1 12-3 2v-2l-3 1-1 5 4 2 6 2-3 4-8-7-6-7 2-4 8-7z" fill="#020202"/>
<path transform="translate(1393,8)" d="m0 0m-1 1m-2 1h2l-2 5-2 4 7 9 16 15 4 3v2h5l-2 2h-5l-7-7-6-5-14-16v-7z" fill="#6F6F70"/>
<path transform="translate(1429,624)" d="m0 0 4 4h3l9 11 15 15 4 3h-5l-5-4-7-8-9-9h-3l-6-4-1-5z" fill="#D1D1D1"/>
<path transform="translate(1116,617)" d="m0 0 5 1 8 7 11 11 4 7-1 2-11-11-16-14z" fill="#D3D3D3"/>
<path transform="translate(58,360)" d="m0 0h5l9 9 2 9v5l-2-3-7-8-8-7z" fill="#020202"/>
<path transform="translate(711,359)" d="m0 0 4 1 12 11 1 4h-7l-6-4-4-5-2-1 1-5z" fill="#D1D1D1"/>
<path transform="translate(158,631)" d="m0 0 4 2 6 7 2 4v7l-7 8-2 1h-7l-5-5h3l3 2 4-1 6-6v-8l-6-8z" fill="#BFC0C0"/>
<path transform="translate(1395,332)" d="m0 0h5l8 6 10 9-1 2-8-6-5-5-3-2h-5l-5 5-1 4 2 4-3-2h-5l1-6 1-2h2l2-4z" fill="#BBBCBC"/>
<path transform="translate(790,617)" d="m0 0 5 2 8 9 3 2h3l6 7 4 8v5l-2-4-26-26z" fill="#D3D3D3"/>
<path transform="translate(1037,359)" d="m0 0 5 2 11 10 1 3h-8l-11-9 1-5z" fill="#CBCBCB"/>
<path transform="translate(412,54)" d="m0 0 11 1 11 2-4 2-8 6-4-2-5-4-2-4z" fill="#5F5F60"/>
<path transform="translate(1090,310)" d="m0 0 8 1 6 4-1 3-5 1-5-4-5 3-5 5h-1l1-7z" fill="#BEBFBF"/>
<path transform="translate(84,15)" d="m0 0h1v7h2l3 5 17 17 5 3 4 2h-9l-5-5-5-4-7-8-6-7-1-8z" fill="#ACAEAD"/>
<path transform="translate(1416,310)" d="m0 0 8 1 5 4v3h-5l-4-3-4 1-4 5h-2v2h-3l1-5 6-7z" fill="#BEBEBE"/>
<path transform="translate(833,284)" d="m0 0 4 2 5 5 1 3v11l-1 9-5 1-6-3v-1l5-1 4-11v-6l-2-4z" fill="#020202"/>
<path transform="translate(816,250)" d="m0 0 5 1 4 1v2l4 1 6 8 3 6-1 4-6-10-7-4h-2l-5-5-2-3z" fill="#0E0C0C"/>
<path transform="translate(487,594)" d="m0 0 5 1 12 11 1 2-5 2-4-1-2-4-8-8z" fill="#5F5E5F"/>
<path transform="translate(736,58)" d="m0 0 7 6 4 4 4-2 8-8 3 1-9 9-2 3h-2l-1 3-8-6-4-5-1-4z" fill="#B4B4B4"/>
<path transform="translate(1394,659)" d="m0 0 7 1 10 8 6 7 2 2-4-1-12-11-5-3-5 1-4 4v5l3 5h-3l-3-5 1-7z" fill="#686969"/>
<path transform="translate(1069,659)" d="m0 0 6 1 11 9 6 7h-3l-10-9-7-5-5 1-4 4 1 6 2 4-4-2-2-4 1-6 6-5z" fill="#6A6A6B"/>
<path transform="translate(505,608)" d="m0 0 4 2 8 9-1 4-4 1-7-8-3-4 1-3z" fill="#FDFDFD"/>
<path transform="translate(183,555)" d="m0 0h7l9 6 9 8-4 1-16-10-5-3z" fill="#161515"/>
<path transform="translate(1466,308)" d="m0 0h2l6 8 1 9-6 7h-6v-2h2l2-4 4-2-2-9-3-5z" fill="#BDBDBD"/>
<path transform="translate(90,659)" d="m0 0 6 1 8 6 10 10h-3l-8-7-9-7-5 1-4 4 1 7 1 3-3-1-2-4 1-7 5-5z" fill="#666667"/>
<path transform="translate(743,659)" d="m0 0 6 1 8 7 9 9h-3l-8-7-7-6-5-1-6 5 1 6 2 4-4-2-2-4 1-6 6-5z" fill="#686969"/>
<path transform="translate(520,601)" d="m0 0h2v2h-3l3 5 3 4-2 4h-3l-8-8 1-4z" fill="#FAFAFA"/>
<path transform="translate(757,382)" d="m0 0 5 1 1 4-5 5-4 2-1 2-2-4-2-1 1-2 5-6z" fill="#D1D1D1"/>
<path transform="translate(790,273)" d="m0 0h7l6 2 5 5 2 5v5l-7-6-7-9-6-1z" fill="#D7CDCD"/>
<path transform="translate(473)" d="m0 0h21v3l-5 1v2l-6 1-8-4z" fill="#C6C6C6"/>
<path transform="translate(1110)" d="m0 0h3l7 8 5 7v7l-8 7-5-1-1-2 7-1 4-5-1-6-3-4v-2h-2l-4-5-2-1-1 3-3 3h-2l2-4z" fill="#666667"/>
<path transform="translate(1110,650)" d="m0 0 3 1 7 8 5 7 1 5-1 6h-8l5-4 1-4-3-5v-2h-2l-6-8-3 1-3 5-3-1 6-7z" fill="#7C7C7C"/>
<path transform="translate(800)" d="m0 0h20l-2 4-6 3-5-1-6-4z" fill="#F0F0F0"/>
<path transform="translate(111,658)" d="m0 0 7 6 2 2h3l10 10v1l-7-1-4-4v-2l-4-2-8-7z" fill="#bbb"/>
<path transform="translate(58,35)" d="m0 0 4 1 13 13 4 5 5 6-1 2-11-11-2-1v-2h-2l-4-5v-2l-3-1z" fill="#999A9A"/>
<path transform="translate(422,664)" d="m0 0 5 2 2 1 1-3 12 12v1h-7l-13-12z" fill="#D3D3D3"/>
<path transform="translate(1141,310)" d="m0 0 4 2 4 7-1 7-4 5-6 2v-3h2l2-4 2-2v-7l-3-5z" fill="#BDBEBE"/>
<path transform="translate(1126)" d="m0 0h19v3l-8 4-4-1-7-5z" fill="#EFEFEF"/>
<path transform="translate(467,659)" d="m0 0 3 1 5 10-3 7h-7l4-8-3-9z" fill="#C3C4C4"/>
<path transform="translate(1452)" d="m0 0h20l-1 3-5 3h-7l-7-5z" fill="#F0F0F0"/>
<path transform="translate(147)" d="m0 0h20v3l-5 3h-7l-8-5z" fill="#EDEDED"/>
<path transform="translate(1437,650)" d="m0 0 5 3 3 5 6 9 1 5-6 5-2-1 5-5-2-6-9-11-3 1-3 5h-2l1-4 4-4h2z" fill="#6B6B6C"/>
<path transform="translate(1070,28)" d="m0 0 19 19 5 1v1h-8l-12-11-4-8z" fill="#A8AAA9"/>
<path transform="translate(784,650)" d="m0 0h2l7 8 6 9v5l-5 5-3-1 5-4-1-6-9-12h-2l-4 6h-2l1-4z" fill="#6C6C6D"/>
<path transform="translate(1363,35)" d="m0 0 4 2 23 23 1 4-4-2-7-8-17-17z" fill="#626263"/>
<path transform="translate(841,276)" d="m0 0 7 5v2l3 1v5l-4 2-4-4-2-6z" fill="#FBFAFA"/>
<path transform="translate(132)" d="m0 0 4 2 9 10 2 5-1 6-6 5-3-1 4-3h2l1-7-3-6-5-5-2-4-5 4-1 2h-2l2-4z" fill="#676768"/>
<path transform="translate(1436)" d="m0 0 4 2 5 5 5 6 1 8-5 6-6 2v-2l6-4 2-3-1-6-2-5h-2l-3-4-6-1z" fill="#676768"/>
<path transform="translate(113,310)" d="m0 0 8 1 5 5-5 3-9-3-1-3h3l-2-2z" fill="#B5B6B6"/>
<path transform="translate(1036,34)" d="m0 0 4 2 20 20-1 2-4-2-5-5v-2h-2l-7-8-5-5z" fill="#6C6C6D"/>
<path transform="translate(1091,637)" d="m0 0 5 1 7 4-4 1-5-3-4 1-5 5-1 3 5 8h-3l-4-6 1-7 5-6z" fill="#656666"/>
<path transform="translate(132,650)" d="m0 0 6 4 9 13-1 3-6-8-6-7v-2l-4 4-2 3h-3l2-4z" fill="#808181"/>
<path transform="translate(784)" d="m0 0 4 1 9 11 2 4-1 7-6 5-4-1 6-4 2-3-1-6-9-11-2-1z" fill="#626263"/>
<path transform="translate(789,320)" d="m0 0 5 3 7 8v3h-5l-4-5-3-3z" fill="#FDFDFD"/>
<path transform="translate(1081,383)" d="m0 0 7 1v4l-5 5-2 4-2-10z" fill="#D0D0D0"/>
<path transform="translate(1401,34)" d="m0 0 14 12v2h5l-2 2h-5l-7-7-6-5z" fill="#9C9D9D"/>
<path transform="translate(743,7)" d="m0 0 5 1 4 2v2l2 1-3 1-5-4h-5l-3 6h-2l-1 6h-2v-6l7-8z" fill="#979898"/>
<path transform="translate(1437,288)" d="m0 0h5l-1 4h-2l-2 4-5 4h-2v-5l4-5z" fill="#BBBCBC"/>
<path transform="translate(1447,623)" d="m0 0h3v2l4 1 7 7 6 5 3 5-1 2-18-18z" fill="#D4D4D4"/>
<path transform="translate(783,333)" d="m0 0 5 1 2 4 3 2-1 4-7-3-4-4z" fill="#5F5F60"/>
<path transform="translate(789,326)" d="m0 0 1 2 4 2 2 4h5v-5l1 2 5-1-1 3-3 2h-14l-1-4z" fill="#D0CDCD"/>
<path transform="translate(132,615)" d="m0 0 5 1v2h-2l-1 3-6 5h-3l1-6z" fill="#BCBDBD"/>
<path transform="translate(1098,31)" d="m0 0 5 5 1 6-6 7-3 2h-6l-1-2 7-2 5-5-1-6-2-4z" fill="#656566"/>
<path transform="translate(1396,7)" d="m0 0 5 1 12 11 5 6h-3l-13-13-3-2-7 1z" fill="#606061"/>
<path transform="translate(458,649)" d="m0 0 4 2 1 5-5-2-3 7-4-1-1-2 7-8z" fill="#C8C8C8"/>
<path transform="translate(1106,629)" d="m0 0 5 1 7 8 10 10-1 2-10-9-11-11z" fill="#D4D4D4"/>
<path transform="translate(788,288)" d="m0 0h1v29h-1l-1-11-3-4 1-5 2-3z" fill="#5F5F60"/>
<path transform="translate(765,637)" d="m0 0 5 1 6 3v2l-4-1-4-2-4 1-5 5v4l-1 2-2-1 1-8 5-5z" fill="#69696A"/>
<path transform="translate(758,351)" d="m0 0 5 3 5 7h-10z" fill="#5D5D5E"/>
<path transform="translate(820,644)" d="m0 0 2 1-1 7-4 5-4 2h-4v-2h3v-2l5-5h2v-5z" fill="#9B9C9C"/>
<path transform="translate(79,53)" d="m0 0 7 6 7 7 2 4-4-1-5-4-2-1-2-5-4-5z" fill="#BEBEBE"/>
<path transform="translate(92,7)" d="m0 0 6 2 3 4h-3l-2-2h-7l-5 6v6l-2-1v-8l5-5z" fill="#707071"/>
<path transform="translate(1415,637)" d="m0 0 8 1 5 3v2l-12-4-1 3-4 4-2 5h-1l1-8z" fill="#69696A"/>
<path transform="translate(110,637)" d="m0 0h7l7 4v2l-4-1-4-2-5 1-6 7-1-3 3-5z" fill="#707171"/>
<path transform="translate(471,16)" d="m0 0h3l-1 7-4 5h-6l2-1 2-4z" fill="#BCBDBD"/>
<path transform="translate(441,318)" d="m0 0 6 2-2 4-4 2-4-2v-4z" fill="#9FA1A0"/>
<path transform="translate(158,631)" d="m0 0 4 2 6 7 2 4v7l-2-4-2 2-2-9-6-7z" fill="#C1C2C2"/>
<path transform="translate(1061,16)" d="m0 0 2 4 5 6v2h2l2 5 3 4-4-2-7-8v-2h-2l-2-4z" fill="#777778"/>
<path transform="translate(1060,56)" d="m0 0 5 4 4 5 3 3-1 2-5-3-7-7z" fill="#909191"/>
<path transform="translate(414,7)" d="m0 0h7l1 2-7 2-6 6h-2l1-5z" fill="#BABBBB"/>
<path transform="translate(759,58)" d="m0 0 3 1-9 9-2 3h-2l-1 3-4-4 4 1 2-4 4-5z" fill="#6E6E6F"/>
<path transform="translate(1083)" d="m0 0h5v3l4 2 4 4-1 3-7-5-1-2h-2z" fill="#B3B4B4"/>
<path transform="translate(1061,379)" d="m0 0 5 1 9 8 2 4-5-2-11-10z" fill="#5F5F60"/>
<path transform="translate(533,594)" d="m0 0h5l1 7-4 1-4-5z" fill="#FAFAFA"/>
<path transform="translate(790,617)" d="m0 0 5 2 9 11h-3l-10-9z" fill="#CFCFCF"/>
<path transform="translate(518,585)" d="m0 0 4 2 7 7-3 1 1 3h-2l-7-12z" fill="#755857"/>
<path transform="translate(711,34)" d="m0 0h2l7 8 3 6-4-2-8-7-1-4z" fill="#757676"/>
<path transform="translate(58,35)" d="m0 0 4 1 8 8 1 4h-3l-4-5v-2l-3-1z" fill="#6B6C6C"/>
<path transform="translate(800)" d="m0 0 5 2 3 2 6-1 3-3h3l-2 4-6 3-5-1-6-4z" fill="#676768"/>
<path transform="translate(1069,659)" d="m0 0m-2 1h2v2l-6 5 1 6 2 4-4-2-2-4 1-6z" fill="#606061"/>
<path transform="translate(1088,6)" d="m0 0 7 5 4 2 1 3 2 1h-2l-1 2-7-6-4-5z" fill="#ABACAC"/>
<path transform="translate(741,660)" d="m0 0h2v2l-6 5 1 6 2 4-4-2-2-4 1-6z" fill="#636364"/>
<path transform="translate(1110,650)" d="m0 0 3 1 6 8h-3l-4-5-3 1-3 5-3-1 6-7z" fill="#656566"/>
<path transform="translate(1402,334)" d="m0 0 5 3 11 10-1 2-8-6-8-8z" fill="#BEBFBF"/>
<path transform="translate(1392,660)" d="m0 0 2 1-5 6v5l3 5h-3l-3-5 1-7z" fill="#656566"/>
<path transform="translate(1126)" d="m0 0 5 2 3 2 6-1 3-3h2v3l-8 4-4-1-7-5z" fill="#626263"/>
<path transform="translate(1444,660)" d="m0 0 4 2 4 8-2 4-4 3-2-1 5-5-2-6z" fill="#656566"/>
<path transform="translate(1452)" d="m0 0 5 2 3 2 6-1 3-3h3l-1 3-5 3h-7l-7-5z" fill="#606061"/>
<path transform="translate(880,271)" d="m0 0h3l-2 5-11 11v-3l9-10z" fill="#020202"/>
<path transform="translate(1110,615)" d="m0 0 4 1-3 5-5 2v2h-2v-4l5-4z" fill="#AAABAB"/>
<path transform="translate(813,316)" d="m0 0 3 3v6l-4 2-1-2z" fill="#5F5F60"/>
<path transform="translate(1393,8)" d="m0 0m-1 1m-2 1h2l-2 5-2 4 2 4h-3l-1-1v-7z" fill="#696A6A"/>
<path transform="translate(147)" d="m0 0 4 1 5 3 6-1 3-3h2v3l-5 3h-7l-8-5z" fill="#666667"/>
<path transform="translate(111,658)" d="m0 0 7 6 4 6-4-2-8-7z" fill="#B7B8B8"/>
<path transform="translate(168,646)" d="m0 0h1v7l-6 4-1-2z" fill="#ADAEAD"/>
<path transform="translate(813,634)" d="m0 0 4 2 5 7-1 2h-3l-5-9z" fill="#BDBEBE"/>
<path transform="translate(1560,431)" d="m0 0h1v13l-1 6-7-2 2-2h2l2-4z" fill="#5C5C5D"/>
<path transform="translate(798,276)" d="m0 0 7 5 1 3 4 1v5l-7-6-5-6z" fill="#C6B8B8"/>
<path transform="translate(794,662)" d="m0 0h2l3 5v5l-5 5-3-1 5-4-1-6z" fill="#686869"/>
<path transform="translate(1472,646)" d="m0 0h1v6l-4 5-5 1 6-8z" fill="#939594"/>
<path transform="translate(1114,613)" d="m0 0 5 1 3 3-5 1-2 1-3-3v-2z" fill="#BDBDBD"/>
<path transform="translate(1363,359)" d="m0 0h3v2l4 2 8 8-1 2-7-7-7-5z" fill="#BFBFBF"/>
<path transform="translate(1064,346)" d="m0 0 3 1 7 8 6 6-1 2-15-15z" fill="#C1C2C2"/>
<path transform="translate(144,15)" d="m0 0h2l1 5-3 5-4 3-3-1 4-3h2z" fill="#606061"/>
<path transform="translate(1146,647)" d="m0 0 1 4-2 4h-2v2l-4 2-3-1 6-5 1-2h2z" fill="#808181"/>
<path transform="translate(103,646)" d="m0 0h3 1l2 9h-3l-2-1z" fill="#A7A9A8"/>
<path transform="translate(801,329)" d="m0 0 1 2 5-1-1 3-3 2h-14l-1-2 13 1z" fill="#8C8C8D"/>
<path transform="translate(84,15)" d="m0 0h1v7h2l3 5 1 2-3 1-4-5-1-8z" fill="#979898"/>
<path transform="translate(743,7)" d="m0 0 5 1 4 2v2l2 1-3 1-5-4-6 1v-3z" fill="#666767"/>
<path transform="translate(863,291)" d="m0 0 2 1-10 11-1-4 5-5z" fill="#020202"/>
<path transform="translate(1088,658)" d="m0 0 4 2 8 8h-3l-5-3-4-5z" fill="#A7A9A8"/>
<path transform="translate(72,365)" d="m0 0h1l1 7 4 5v3h-2v-2h-3l-1-4z" fill="#A1A1A2"/>
<path transform="translate(782,617)" d="m0 0h2l1 4-6 4-1-4z" fill="#B1B2B2"/>
<path transform="translate(1093,314)" d="m0 0h6l5 1-1 3-5 1z" fill="#D4D4D4"/>
<path transform="translate(1409,648)" d="m0 0 4 5 1 3 2 1-1 2h-2l-4-4z" fill="#959796"/>
<path transform="translate(1389,61)" d="m0 0 4 2 5 5 1 2-6-2-3-2z" fill="#9C9D9D"/>
<path transform="translate(759,650)" d="m0 0 4 5v3l-4-1-3-4v-2z" fill="#9FA1A0"/>
<path transform="translate(138,644)" d="m0 0 4 2 5 5 1 2-4-1-6-6z" fill="#BDBEBE"/>
<path transform="translate(100,11)" d="m0 0h2l6 8h-4l-4-4z" fill="#8D8E8E"/>
<path transform="translate(1110,290)" d="m0 0 2 1-4 7-4 1 1-4z" fill="#B5B6B6"/>
<path transform="translate(802,278)" d="m0 0h3 2l2 4-1 4-3-2v-3l-3-1z" fill="#F9EDEC"/>
<path transform="translate(85,664)" d="m0 0v3l1 7 1 3-3-1-2-4v-5z" fill="#5F5F60"/>
<path transform="translate(1470,640)" d="m0 0h2l2 4v7l-3-2z" fill="#ADAFAE"/>
<path transform="translate(738,380)" d="m0 0 5 2 4 5h-4l-5-6z" fill="#535354"/>
</svg>
